<?xml version="1.0" encoding="UTF-8" standalone="no"?>
<svg
   xmlns:dc="http://purl.org/dc/elements/1.1/"
   xmlns:cc="http://creativecommons.org/ns#"
   xmlns:rdf="http://www.w3.org/1999/02/22-rdf-syntax-ns#"
   xmlns:svg="http://www.w3.org/2000/svg"
   xmlns="http://www.w3.org/2000/svg"
   xmlns:sodipodi="http://sodipodi.sourceforge.net/DTD/sodipodi-0.dtd"
   xmlns:inkscape="http://www.inkscape.org/namespaces/inkscape"
   version="1.1"
   id="neu"
   x="0px"
   y="0px"
   width="1103.0935"
   height="56.791317"
   viewBox="0 0 1103.0935 56.791317"
   enable-background="new 0 0 529.857 125.363"
   xml:space="preserve"
   sodipodi:docname="dzp.svg"
   inkscape:version="1.0.2 (e86c8708, 2021-01-15)"><metadata
   id="metadata899"><rdf:RDF><cc:Work
       rdf:about=""><dc:format>image/svg+xml</dc:format><dc:type
         rdf:resource="http://purl.org/dc/dcmitype/StillImage" /><dc:title></dc:title></cc:Work></rdf:RDF></metadata><defs
   id="defs897">
	
	

	
		<linearGradient
   id="SVGID_1_"
   gradientUnits="userSpaceOnUse"
   x1="0"
   y1="-16190.738"
   x2="131.66701"
   y2="-16190.738"
   gradientTransform="matrix(1,0,0,-1,0,-16128.059)">
		<stop
   offset="0"
   style="stop-color:#fff"
   id="stop833" />
		<stop
   offset="1"
   style="stop-color:#fff"
   id="stop835" />
	</linearGradient>
	

		
		
		
		
		
		
		
		
		
		
		
		
		
		
	
		
		
		
		
		
		
		
		
		
	
		
		
		
		
		
		
		
		
		
	
		
		
		
		
		
		
		
		
		
		
		
		
		
		
	</defs><sodipodi:namedview
   pagecolor="#ffffff"
   bordercolor="#666666"
   borderopacity="1"
   objecttolerance="10"
   gridtolerance="10"
   guidetolerance="10"
   inkscape:pageopacity="0"
   inkscape:pageshadow="2"
   inkscape:window-width="1421"
   inkscape:window-height="819"
   id="namedview895"
   showgrid="false"
   fit-margin-top="0"
   fit-margin-left="0"
   fit-margin-right="0"
   fit-margin-bottom="0"
   inkscape:zoom="0.70230549"
   inkscape:cx="560.29749"
   inkscape:cy="28.395659"
   inkscape:window-x="0"
   inkscape:window-y="25"
   inkscape:window-maximized="0"
   inkscape:current-layer="neu"
   inkscape:document-rotation="0"
   showguides="true"
   inkscape:guide-bbox="true" />


<path
   fill-rule="evenodd"
   clip-rule="evenodd"
   fill="url(#SVGID_1_)"
   d="M 4.0695835,6.2114314e-7 C 6.1521147,-0.00135844 7.4051669,2.227951 7.4051669,2.227951 c 0.854848,4.8645246 3.4524621,7.0883979 7.7810641,6.6689017 0.833103,3.3500803 7.526015,6.4025263 10.003126,4.4472933 1.262566,-0.994378 0.96312,-6.6041196 1.112616,-6.6689014 0.55948,-0.2618454 2.9854,10.1553404 3.269896,0.7560897 0.0082,-0.2179024 0.13953,-0.2894795 0.17849,-0.07656 1.229042,6.0469057 5.941352,-0.5803182 5.445295,4.8753967 5.510078,-4.5442394 9.10796,-4.1772935 12.226094,-11.1143828 1.82884,5.1897927 -7.566787,8.7124731 -10.003126,13.3391618 0.478388,2.48436 5.475648,0.450302 7.778346,1.110351 -9.309553,-3.1281 -0.884294,-0.221979 2.224327,-4.447293 C 46.651161,8.3459809 44.45764,13.181965 41.862291,12.230171 44.016852,9.9134287 54.363367,6.2167887 56.316788,6.2114314e-7 58.381198,3.9621101 49.837248,6.8369726 48.532552,11.118008 51.047264,12.041262 56.010547,9.8246369 58.537037,5.5617224 60.416162,12.280003 50.095922,16.372129 42.975813,17.787816 c 4.405163,3.245432 11.213595,-3.93357 16.672028,-1.109445 -7.135965,4.570061 -0.989848,10.374602 -13.615504,6.374892 3.080533,-1.307868 4.362125,-2.013673 7.770192,-2.077095 -6.300144,-1.567448 -15.64775,0.412247 -18.607781,-2.075736 0.241007,4.946521 5.620615,4.389307 7.989907,7.207995 13.308357,-3.106809 -5.708047,5.847577 -9.100711,-1.649445 -2.349359,-2.722194 1.168791,1.658505 3.334225,1.109445 -0.225604,-4.223501 -4.676069,-4.216253 -4.449559,-8.890509 -3.256305,0.943186 0.962214,3.704794 0,5.557191 -5.446202,10.518662 -4.933836,29.348423 -15.308439,34.35746 -0.123674,0.06025 -0.457549,0.28495 -0.616559,0.163087 -0.13047,-0.103288 -0.09695,-0.52369 -0.09332,-0.719848 0.06025,-3.144409 1.677984,-8.471013 5.457074,-9.443194 0.401375,-0.101476 0.978069,-0.109177 1.241274,-0.104194 4.587276,-9.122456 5.706688,-14.238859 7.099723,-26.475825 C 29.892607,27.521395 6.9657379,25.559367 0.73581224,12.229718 -0.85926981,8.8234635 0.55822855,10.044351 1.0805601,8.5068028 4.427016,12.799164 16.075509,15.934965 18.518644,15.564848 15.246936,13.699767 -2.0679262,9.7838651 4.0695835,6.2114314e-7"
   id="path838"
   style="fill:#ffffff;stroke-width:0.45302" /><g
   id="g2037"
   transform="translate(0,0.23600049)"
   style="fill:#ffffff"><path
     fill="#fff"
     d="m 106.11684,28.482658 c 0,2.108 -0.321,4.081 -0.961,5.918 -0.641,1.837 -1.589,3.433 -2.842,4.786 -1.254,1.353 -2.791999,2.421 -4.614999,3.205 -1.824,0.784 -3.917,1.175 -6.282,1.175 h -5.769 v -30.468 h 5.769 c 2.479,0 4.636,0.384 6.474,1.153 1.837,0.77 3.367999,1.838 4.593999,3.205 1.225,1.368 2.137,2.991 2.735,4.872 0.598,1.881 0.897,3.932 0.897,6.154 z m -4.059,0 c 0,-1.738 -0.229,-3.361 -0.687,-4.872 -0.458,-1.51 -1.129,-2.813 -2.014999,-3.91 -0.886,-1.096 -1.994,-1.958 -3.323,-2.585 -1.33,-0.626 -2.866,-0.94 -4.609,-0.94 h -1.973 v 24.187 h 1.973 c 1.743,0 3.279,-0.306 4.609,-0.918 1.33,-0.612 2.437,-1.453 3.323,-2.521 0.885999,-1.068 1.557999,-2.329 2.014999,-3.782 0.458,-1.454 0.687,-3.006 0.687,-4.659 z"
     id="path842"
     style="fill:#ffffff" /><path
     fill="#fff"
     d="m 131.28684,16.218658 h -11.666 v 9.572 h 9.657 l -0.513,3.205 h -9.145 v 11.281 h 12.264 l -0.47,3.291 h -15.469 v -30.512 l 15.982,0.042 z"
     id="path844"
     style="fill:#ffffff" /><path
     fill="#fff"
     d="m 161.02884,34.764658 c 0,1.425 -0.228,2.707 -0.684,3.846 -0.456,1.14 -1.104,2.108 -1.944,2.906 -0.841,0.798 -1.859,1.41 -3.056,1.837 -1.196,0.428 -2.536,0.641 -4.017,0.641 -1.453,0 -2.764,-0.192 -3.932,-0.577 -1.168,-0.385 -2.172,-0.947 -3.013,-1.688 -0.84,-0.741 -1.489,-1.646 -1.944,-2.714 -0.456,-1.068 -0.684,-2.3 -0.684,-3.696 v -22.221 h 3.803 v 21.751 c 0,1.909 0.513,3.383 1.539,4.423 1.025,1.04 2.436,1.56 4.23,1.56 1.823,0 3.269,-0.513 4.337,-1.539 1.068,-1.025 1.603,-2.479 1.603,-4.358 v -21.837 h 3.76 v 21.666 z"
     id="path846"
     style="fill:#ffffff" /><path
     fill="#fff"
     d="m 189.44484,16.388658 h -8.247 v 27.178 h -3.846 v -27.178 h -8.205 v -3.29 h 20.597 z"
     id="path848"
     style="fill:#ffffff" /><path
     fill="#fff"
     d="m 213.11884,18.696658 c -0.998,-0.797 -2.059,-1.467 -3.184,-2.008 -1.126,-0.541 -2.315,-0.812 -3.568,-0.812 -0.656,0 -1.275,0.085 -1.859,0.256 -0.584,0.171 -1.097,0.435 -1.538,0.791 -0.442,0.356 -0.791,0.805 -1.047,1.346 -0.256,0.542 -0.384,1.168 -0.384,1.88 0,0.769 0.156,1.446 0.47,2.03 0.313,0.584 0.727,1.118 1.239,1.603 0.513,0.484 1.083,0.933 1.709,1.346 0.626,0.414 1.268,0.819 1.923,1.218 0.997,0.627 1.973,1.239 2.927,1.837 0.954,0.598 1.802,1.254 2.542,1.966 0.741,0.712 1.332,1.532 1.773,2.457 0.441,0.926 0.663,2.044 0.663,3.354 0,1.225 -0.229,2.344 -0.684,3.354 -0.456,1.012 -1.09,1.874 -1.902,2.585 -0.812,0.712 -1.773,1.268 -2.884,1.667 -1.111,0.398 -2.308,0.598 -3.59,0.598 -1.111,0 -2.13,-0.1 -3.055,-0.299 -0.926,-0.2 -1.773,-0.47 -2.542,-0.812 -0.77,-0.342 -1.482,-0.727 -2.137,-1.154 -0.656,-0.427 -1.268,-0.883 -1.837,-1.368 l 2.308,-2.991 c 0.455,0.399 0.947,0.798 1.474,1.197 0.527,0.399 1.096,0.769 1.709,1.111 0.612,0.342 1.274,0.62 1.987,0.833 0.712,0.213 1.481,0.32 2.308,0.32 1.396,0 2.549,-0.42 3.461,-1.261 0.911,-0.84 1.367,-1.944 1.367,-3.312 0,-0.883 -0.186,-1.659 -0.555,-2.329 -0.371,-0.669 -0.862,-1.267 -1.475,-1.795 -0.613,-0.527 -1.311,-1.018 -2.094,-1.474 -0.784,-0.456 -1.574,-0.925 -2.372,-1.41 -0.827,-0.513 -1.639,-1.047 -2.436,-1.603 -0.798,-0.556 -1.517,-1.182 -2.158,-1.88 -0.641,-0.698 -1.161,-1.496 -1.56,-2.393 -0.399,-0.897 -0.598,-1.944 -0.598,-3.141 0,-1.225 0.249,-2.322 0.748,-3.291 0.498,-0.968 1.146,-1.788 1.944,-2.457 0.797,-0.669 1.709,-1.175 2.735,-1.517 1.025,-0.342 2.079,-0.513 3.162,-0.513 1.823,0 3.511,0.314 5.064,0.94 1.552,0.627 2.927,1.41 4.124,2.351 z"
     id="path850"
     style="fill:#ffffff" /><path
     fill="#fff"
     d="m 241.96284,19.081658 c -0.684,-0.968 -1.517,-1.745 -2.5,-2.329 -0.983,-0.583 -2.158,-0.876 -3.525,-0.876 -1.254,0 -2.329,0.356 -3.227,1.068 -0.897,0.712 -1.631,1.66 -2.201,2.842 -0.57,1.183 -0.983,2.542 -1.239,4.081 -0.256,1.538 -0.385,3.148 -0.385,4.829 0,1.653 0.128,3.22 0.385,4.701 0.256,1.481 0.676,2.785 1.261,3.91 0.583,1.125 1.332,2.023 2.243,2.692 0.912,0.67 2.022,1.004 3.333,1.004 1.396,0 2.542,-0.256 3.44,-0.769 0.897,-0.513 1.73,-1.097 2.5,-1.752 l 2.521,2.521 c -0.912,0.883 -2.08,1.631 -3.504,2.244 -1.425,0.612 -3.077,0.918 -4.957,0.918 -2.023,0 -3.761,-0.392 -5.213,-1.175 -1.453,-0.783 -2.636,-1.866 -3.547,-3.248 -0.912,-1.381 -1.581,-3.013 -2.008,-4.893 -0.428,-1.88 -0.641,-3.932 -0.641,-6.154 0,-2.335 0.249,-4.479 0.748,-6.431 0.498,-1.951 1.225,-3.632 2.18,-5.042 0.954,-1.41 2.143,-2.514 3.568,-3.312 1.424,-0.797 3.062,-1.196 4.915,-1.196 1.994,0 3.718,0.399 5.17,1.196 1.453,0.798 2.664,1.81 3.632,3.034 z"
     id="path852"
     style="fill:#ffffff" /><path
     fill="#fff"
     d="m 270.76484,43.567658 v -14.53 h -13.546 v 14.529 h -3.761 v -30.511 h 3.803 v 12.905 h 13.503 v -12.905 h 3.719 v 30.511 h -3.718 z"
     id="path854"
     style="fill:#ffffff" /><path
     fill="#fff"
     d="m 301.36084,16.218658 h -11.666 v 9.572 h 9.657 l -0.513,3.205 h -9.145 v 11.281 h 12.264 l -0.47,3.291 h -15.469 v -30.512 l 15.981,0.042 z"
     id="path856"
     style="fill:#ffffff" /><path
     fill="#fff"
     d="m 327.51384,18.696658 c -0.998,-0.797 -2.059,-1.467 -3.184,-2.008 -1.126,-0.541 -2.315,-0.812 -3.568,-0.812 -0.655,0 -1.275,0.085 -1.858,0.256 -0.585,0.171 -1.098,0.435 -1.539,0.791 -0.441,0.356 -0.79,0.805 -1.047,1.346 -0.256,0.542 -0.385,1.168 -0.385,1.88 0,0.769 0.156,1.446 0.471,2.03 0.312,0.584 0.727,1.118 1.239,1.603 0.512,0.485 1.082,0.933 1.709,1.346 0.626,0.414 1.268,0.819 1.923,1.218 0.997,0.627 1.973,1.239 2.928,1.837 0.954,0.598 1.801,1.254 2.542,1.966 0.74,0.712 1.332,1.532 1.773,2.457 0.441,0.926 0.662,2.044 0.662,3.354 0,1.225 -0.228,2.344 -0.684,3.354 -0.456,1.012 -1.089,1.874 -1.901,2.585 -0.812,0.712 -1.773,1.268 -2.885,1.667 -1.11,0.398 -2.308,0.598 -3.589,0.598 -1.111,0 -2.13,-0.1 -3.056,-0.299 -0.926,-0.2 -1.773,-0.47 -2.543,-0.812 -0.769,-0.342 -1.481,-0.727 -2.137,-1.154 -0.656,-0.427 -1.268,-0.883 -1.837,-1.368 l 2.308,-2.991 c 0.455,0.399 0.946,0.798 1.474,1.197 0.528,0.399 1.097,0.769 1.71,1.111 0.612,0.342 1.274,0.62 1.987,0.833 0.711,0.213 1.48,0.32 2.307,0.32 1.396,0 2.55,-0.42 3.462,-1.261 0.911,-0.84 1.367,-1.944 1.367,-3.312 0,-0.883 -0.186,-1.659 -0.556,-2.329 -0.37,-0.669 -0.861,-1.267 -1.474,-1.795 -0.613,-0.527 -1.311,-1.018 -2.095,-1.474 -0.783,-0.456 -1.574,-0.925 -2.371,-1.41 -0.827,-0.513 -1.639,-1.047 -2.436,-1.603 -0.798,-0.556 -1.518,-1.182 -2.158,-1.88 -0.641,-0.698 -1.161,-1.496 -1.56,-2.393 -0.399,-0.897 -0.599,-1.944 -0.599,-3.141 0,-1.225 0.249,-2.322 0.748,-3.291 0.498,-0.968 1.146,-1.788 1.944,-2.457 0.797,-0.669 1.709,-1.175 2.734,-1.517 1.026,-0.342 2.08,-0.513 3.163,-0.513 1.822,0 3.511,0.314 5.063,0.94 1.553,0.627 2.927,1.41 4.124,2.351 z"
     id="path858"
     style="fill:#ffffff" /><path
     fill="#fff"
     d="m 348.00996,43.630158 c 0,-2.019 0.178,-3.811 0.534,-5.375 0.356,-1.564 0.861,-2.987 1.517,-4.267 0.655,-1.28 1.467,-2.475 2.436,-3.584 0.968,-1.109 2.079,-2.218 3.333,-3.328 0.968,-0.881 1.852,-1.721 2.649,-2.517 0.797,-0.796 1.481,-1.614 2.051,-2.453 0.569,-0.839 1.011,-1.707 1.325,-2.603 0.313,-0.896 0.47,-1.884 0.47,-2.965 h -13.846 v -3.376 h 17.777 c 0,1.998 -0.128,3.709 -0.385,5.136 -0.256,1.427 -0.677,2.725 -1.26,3.895 -0.584,1.17 -1.346,2.291 -2.286,3.36 -0.94,1.07 -2.08,2.219 -3.419,3.445 -0.883,0.828 -1.738,1.663 -2.564,2.504 -0.827,0.842 -1.553,1.719 -2.179,2.633 -0.627,0.914 -1.132,1.876 -1.517,2.889 -0.385,1.013 -0.577,2.09 -0.577,3.231 h 14.614 v 3.376 h -18.673 z"
     id="path862"
     style="fill:#ffffff" /><path
     fill="#fff"
     d="m 391.85296,16.281158 h -11.666 v 9.572 h 9.657 l -0.513,3.205 h -9.145 v 11.281 h 12.264 l -0.47,3.291 h -15.469 v -30.511 l 15.982,0.042 z"
     id="path864"
     style="fill:#ffffff" /><path
     fill="#fff"
     d="m 402.32296,43.630158 v -30.468 h 3.718 v 30.468 z"
     id="path866"
     style="fill:#ffffff" /><path
     fill="#fff"
     d="m 434.45696,16.452158 h -8.247 v 27.178 h -3.846 v -27.178 h -8.205 v -3.29 h 20.597 z"
     id="path868"
     style="fill:#ffffff" /><path
     fill="#fff"
     d="m 461.72096,34.827158 c 0,1.425 -0.228,2.707 -0.684,3.846 -0.456,1.14 -1.104,2.108 -1.944,2.906 -0.841,0.798 -1.859,1.41 -3.056,1.837 -1.196,0.428 -2.536,0.641 -4.017,0.641 -1.453,0 -2.764,-0.192 -3.932,-0.577 -1.168,-0.385 -2.172,-0.947 -3.013,-1.688 -0.84,-0.741 -1.489,-1.646 -1.944,-2.714 -0.456,-1.068 -0.684,-2.3 -0.684,-3.696 v -22.22 h 3.803 v 21.751 c 0,1.909 0.513,3.383 1.539,4.423 1.025,1.04 2.436,1.56 4.23,1.56 1.823,0 3.269,-0.513 4.337,-1.539 1.068,-1.025 1.603,-2.479 1.603,-4.358 v -21.837 h 3.76 v 21.665 z"
     id="path870"
     style="fill:#ffffff" /><path
     fill="#fff"
     d="m 488.94096,43.630158 -9.487,-19.7 c -0.342,-0.712 -0.627,-1.339 -0.854,-1.88 -0.229,-0.541 -0.435,-1.054 -0.62,-1.539 -0.186,-0.484 -0.371,-0.975 -0.556,-1.474 -0.186,-0.498 -0.42,-1.075 -0.705,-1.73 -0.058,1.453 -0.05,2.906 0.021,4.358 0.071,1.453 0.107,3.077 0.107,4.872 v 17.093 h -3.59 v -29.443 l 4.401,-1.624 9.872,20.255 c 0.626,1.282 1.175,2.536 1.645,3.761 0.47,1.225 1.018,2.479 1.646,3.76 0.028,-1.453 0.014,-2.948 -0.043,-4.487 -0.058,-1.539 -0.085,-3.077 -0.085,-4.615 v -18.075 h 3.589 v 30.468 z"
     id="path872"
     style="fill:#ffffff" /><path
     fill="#fff"
     d="m 523.21196,18.760158 c -0.912,-0.911 -1.93,-1.638 -3.055,-2.179 -1.126,-0.541 -2.386,-0.812 -3.782,-0.812 -1.311,0 -2.422,0.335 -3.333,1.004 -0.912,0.669 -1.66,1.574 -2.243,2.713 -0.584,1.14 -1.004,2.451 -1.261,3.932 -0.256,1.481 -0.385,3.048 -0.385,4.7 0,1.682 0.121,3.298 0.363,4.851 0.242,1.553 0.641,2.927 1.197,4.124 0.556,1.196 1.289,2.151 2.201,2.863 0.911,0.712 2.037,1.068 3.376,1.068 0.997,0 1.951,-0.057 2.863,-0.171 0.912,-0.113 1.752,-0.284 2.521,-0.513 v -11.239 h -5.812 l 0.513,-2.991 h 8.888 v 15.683 c -1.083,0.684 -2.408,1.239 -3.974,1.667 -1.567,0.427 -3.233,0.641 -5,0.641 -2.023,0 -3.747,-0.414 -5.171,-1.239 -1.425,-0.826 -2.593,-1.951 -3.504,-3.376 -0.912,-1.424 -1.581,-3.112 -2.008,-5.064 -0.428,-1.951 -0.641,-4.052 -0.641,-6.303 0,-2.25 0.249,-4.316 0.748,-6.196 0.498,-1.88 1.225,-3.504 2.18,-4.871 0.954,-1.368 2.143,-2.436 3.568,-3.205 1.424,-0.77 3.062,-1.154 4.915,-1.154 2.051,0 3.838,0.335 5.363,1.004 1.524,0.67 2.87,1.603 4.038,2.799 z"
     id="path874"
     style="fill:#ffffff" /><path
     fill="#fff"
     d="m 552.35496,18.760158 c -0.998,-0.797 -2.059,-1.467 -3.184,-2.008 -1.125,-0.541 -2.314,-0.812 -3.568,-0.812 -0.654,0 -1.275,0.085 -1.857,0.256 -0.586,0.171 -1.098,0.435 -1.539,0.791 -0.441,0.356 -0.791,0.805 -1.047,1.346 -0.256,0.542 -0.385,1.168 -0.385,1.88 0,0.769 0.156,1.446 0.471,2.03 0.312,0.584 0.727,1.118 1.238,1.603 0.514,0.484 1.082,0.933 1.709,1.346 0.627,0.414 1.268,0.819 1.924,1.218 0.996,0.627 1.973,1.239 2.928,1.837 0.953,0.598 1.801,1.254 2.541,1.966 0.74,0.712 1.332,1.532 1.773,2.457 0.441,0.926 0.662,2.044 0.662,3.354 0,1.225 -0.227,2.344 -0.684,3.354 -0.455,1.012 -1.088,1.874 -1.9,2.585 -0.812,0.712 -1.773,1.268 -2.885,1.667 -1.112,0.399 -2.309,0.598 -3.59,0.598 -1.111,0 -2.129,-0.1 -3.055,-0.299 -0.926,-0.2 -1.773,-0.47 -2.543,-0.812 -0.77,-0.342 -1.482,-0.727 -2.137,-1.154 -0.656,-0.427 -1.268,-0.883 -1.837,-1.368 l 2.308,-2.991 c 0.455,0.399 0.945,0.798 1.473,1.197 0.528,0.399 1.098,0.769 1.711,1.111 0.611,0.342 1.273,0.62 1.986,0.833 0.711,0.213 1.48,0.32 2.307,0.32 1.396,0 2.551,-0.42 3.463,-1.261 0.91,-0.84 1.367,-1.944 1.367,-3.312 0,-0.883 -0.186,-1.659 -0.557,-2.329 -0.369,-0.669 -0.861,-1.267 -1.473,-1.795 -0.613,-0.527 -1.311,-1.018 -2.096,-1.474 -0.783,-0.456 -1.574,-0.925 -2.371,-1.41 -0.826,-0.513 -1.639,-1.047 -2.436,-1.603 -0.797,-0.556 -1.518,-1.182 -2.158,-1.88 -0.641,-0.698 -1.16,-1.496 -1.559,-2.393 -0.4,-0.897 -0.6,-1.944 -0.6,-3.141 0,-1.225 0.25,-2.322 0.748,-3.291 0.498,-0.968 1.146,-1.788 1.945,-2.457 0.797,-0.669 1.709,-1.175 2.734,-1.517 1.025,-0.342 2.08,-0.513 3.162,-0.513 1.822,0 3.512,0.314 5.064,0.94 1.553,0.627 2.926,1.41 4.123,2.351 z"
     id="path876"
     style="fill:#ffffff" /><path
     fill="#fff"
     d="m 582.13896,22.093158 c 0,1.339 -0.277,2.55 -0.833,3.632 -0.556,1.083 -1.317,2.009 -2.286,2.778 -0.969,0.769 -2.13,1.361 -3.482,1.773 -1.354,0.413 -2.813,0.62 -4.38,0.62 h -2.692 v 12.734 h -3.675 v -30.468 h 6.794 c 3.333,0 5.926,0.798 7.777,2.393 1.852,1.596 2.777,3.775 2.777,6.538 z m -4.059,0 c 0,-1.88 -0.555,-3.355 -1.666,-4.423 -1.111,-1.068 -2.721,-1.603 -4.829,-1.603 h -3.119 v 11.879 h 2.692 c 1.025,0 1.958,-0.128 2.799,-0.384 0.84,-0.256 1.566,-0.634 2.179,-1.133 0.612,-0.498 1.09,-1.111 1.432,-1.837 0.342,-0.726 0.512,-1.559 0.512,-2.499 z"
     id="path878"
     style="fill:#ffffff" /><path
     fill="#fff"
     d="m 614.14696,28.332158 c 0,2.194 -0.229,4.245 -0.684,6.153 -0.456,1.909 -1.161,3.576 -2.115,5 -0.955,1.425 -2.151,2.55 -3.59,3.376 -1.438,0.826 -3.141,1.239 -5.106,1.239 -1.994,0 -3.718,-0.378 -5.171,-1.133 -1.452,-0.754 -2.649,-1.823 -3.589,-3.205 -0.94,-1.382 -1.639,-3.034 -2.094,-4.957 -0.456,-1.923 -0.685,-4.066 -0.685,-6.431 0,-2.25 0.235,-4.33 0.705,-6.239 0.471,-1.908 1.176,-3.568 2.115,-4.979 0.94,-1.41 2.137,-2.514 3.59,-3.312 1.453,-0.797 3.162,-1.197 5.128,-1.197 1.994,0 3.718,0.414 5.171,1.239 1.453,0.827 2.649,1.952 3.59,3.376 0.939,1.425 1.63,3.084 2.072,4.979 0.443,1.897 0.663,3.926 0.663,6.091 z m -4.187,0.043 c 0,-1.709 -0.149,-3.34 -0.449,-4.893 -0.299,-1.552 -0.747,-2.92 -1.346,-4.103 -0.599,-1.182 -1.36,-2.122 -2.286,-2.82 -0.926,-0.698 -2.002,-1.047 -3.227,-1.047 -1.311,0 -2.429,0.349 -3.354,1.047 -0.926,0.698 -1.688,1.639 -2.286,2.82 -0.599,1.183 -1.033,2.55 -1.304,4.103 -0.271,1.553 -0.405,3.184 -0.405,4.893 0,1.823 0.135,3.519 0.405,5.085 0.271,1.567 0.698,2.927 1.282,4.081 0.584,1.154 1.339,2.066 2.265,2.735 0.926,0.669 2.059,1.004 3.397,1.004 1.338,0 2.472,-0.342 3.397,-1.026 0.925,-0.684 1.681,-1.616 2.265,-2.799 0.584,-1.182 1.004,-2.549 1.261,-4.103 0.257,-1.551 0.385,-3.211 0.385,-4.977 z"
     id="path880"
     style="fill:#ffffff" /><path
     fill="#fff"
     d="m 646.83696,43.032158 c -0.427,0.313 -0.961,0.563 -1.603,0.748 -0.641,0.185 -1.332,0.278 -2.072,0.278 -1.795,0 -3.119,-0.484 -3.975,-1.453 -0.854,-0.968 -1.281,-2.365 -1.281,-4.188 v -2.991 c 0,-0.94 -0.157,-1.802 -0.471,-2.585 -0.313,-0.783 -0.763,-1.446 -1.346,-1.987 -0.584,-0.541 -1.268,-0.961 -2.052,-1.26 -0.783,-0.299 -1.645,-0.449 -2.585,-0.449 h -2.82 v 14.486 h -3.803 v -30.512 h 7.136 c 1.566,0 2.998,0.164 4.295,0.491 1.296,0.328 2.407,0.819 3.333,1.475 0.926,0.656 1.646,1.481 2.158,2.479 0.513,0.998 0.77,2.151 0.77,3.461 0,0.912 -0.165,1.745 -0.492,2.5 -0.327,0.755 -0.762,1.417 -1.303,1.987 -0.542,0.57 -1.147,1.054 -1.816,1.453 -0.67,0.399 -1.36,0.684 -2.072,0.855 1.623,0.57 2.834,1.532 3.632,2.884 0.798,1.354 1.196,2.927 1.196,4.722 v 2.735 c 0,0.769 0.114,1.439 0.342,2.008 0.229,0.57 0.685,0.854 1.368,0.854 0.483,0 0.883,-0.057 1.196,-0.171 0.313,-0.113 0.626,-0.256 0.94,-0.427 z m -8.333,-21.965 c 0,-0.854 -0.171,-1.588 -0.513,-2.201 -0.342,-0.612 -0.805,-1.118 -1.389,-1.517 -0.584,-0.398 -1.275,-0.698 -2.072,-0.897 -0.798,-0.199 -1.652,-0.299 -2.564,-0.299 h -3.333 v 9.871 h 3.376 c 1.88,0 3.433,-0.42 4.658,-1.261 1.224,-0.839 1.837,-2.072 1.837,-3.696 z"
     id="path882"
     style="fill:#ffffff" /><path
     fill="#fff"
     d="m 670.59696,16.452158 h -8.247 v 27.178 h -3.846 v -27.178 h -8.205 v -3.29 h 20.597 z"
     id="path884"
     style="fill:#ffffff" /><path
     fill="#fff"
     d="m 695.68096,43.630158 -2.265,-8.418 h -11.281 l -2.479,8.418 h -4.061 l 9.872,-30.468 h 5.47 l 8.717,30.468 z m -7.093,-27.605 h -0.77 l -4.743,16.153 h 9.615 z"
     id="path886"
     style="fill:#ffffff" /><path
     fill="#fff"
     d="m 723.19996,43.630158 h -14.999 v -30.468 h 3.675 v 27.306 h 11.623 z"
     id="path888"
     style="fill:#ffffff" /><g
     id="g1920"
     transform="translate(190.85444,-92.402422)"
     style="fill:#ffffff"><path
       fill="#fff"
       d="m 568.34689,110.90458 c -0.684,-0.968 -1.517,-1.745 -2.5,-2.329 -0.983,-0.583 -2.158,-0.876 -3.525,-0.876 -1.254,0 -2.329,0.356 -3.227,1.068 -0.897,0.712 -1.631,1.66 -2.201,2.842 -0.57,1.183 -0.983,2.542 -1.239,4.081 -0.256,1.538 -0.385,3.148 -0.385,4.829 0,1.653 0.128,3.22 0.385,4.701 0.256,1.481 0.676,2.785 1.261,3.91 0.583,1.125 1.332,2.023 2.243,2.692 0.912,0.67 2.022,1.004 3.333,1.004 1.396,0 2.542,-0.256 3.44,-0.769 0.897,-0.513 1.73,-1.097 2.5,-1.752 l 2.521,2.521 c -0.912,0.883 -2.08,1.631 -3.504,2.244 -1.425,0.612 -3.077,0.918 -4.957,0.918 -2.023,0 -3.761,-0.392 -5.213,-1.175 -1.453,-0.783 -2.636,-1.866 -3.547,-3.248 -0.912,-1.381 -1.581,-3.013 -2.008,-4.893 -0.428,-1.88 -0.641,-3.932 -0.641,-6.154 0,-2.335 0.249,-4.479 0.748,-6.431 0.498,-1.951 1.225,-3.632 2.18,-5.042 0.954,-1.41 2.143,-2.514 3.568,-3.312 1.424,-0.797 3.062,-1.196 4.915,-1.196 1.994,0 3.718,0.399 5.17,1.196 1.453,0.798 2.664,1.81 3.632,3.034 z"
       id="path1676"
       style="fill:#ffffff" /><path
       fill="#fff"
       d="m 599.07048,120.22158 c 0,2.194 -0.229,4.245 -0.684,6.153 -0.456,1.909 -1.161,3.576 -2.115,5 -0.955,1.425 -2.151,2.55 -3.59,3.376 -1.438,0.826 -3.141,1.239 -5.106,1.239 -1.994,0 -3.718,-0.378 -5.171,-1.133 -1.452,-0.754 -2.649,-1.823 -3.589,-3.205 -0.94,-1.382 -1.639,-3.034 -2.094,-4.957 -0.456,-1.923 -0.685,-4.066 -0.685,-6.431 0,-2.25 0.235,-4.33 0.705,-6.239 0.471,-1.908 1.176,-3.568 2.115,-4.979 0.94,-1.41 2.137,-2.514 3.59,-3.312 1.453,-0.797 3.162,-1.197 5.128,-1.197 1.994,0 3.718,0.414 5.171,1.239 1.453,0.827 2.649,1.952 3.59,3.376 0.939,1.425 1.63,3.084 2.072,4.979 0.443,1.897 0.663,3.926 0.663,6.091 z m -4.187,0.043 c 0,-1.709 -0.149,-3.34 -0.449,-4.893 -0.299,-1.552 -0.747,-2.92 -1.346,-4.103 -0.599,-1.182 -1.36,-2.122 -2.286,-2.82 -0.926,-0.698 -2.002,-1.047 -3.227,-1.047 -1.311,0 -2.429,0.349 -3.354,1.047 -0.926,0.698 -1.688,1.639 -2.286,2.82 -0.599,1.183 -1.033,2.55 -1.304,4.103 -0.271,1.553 -0.405,3.184 -0.405,4.893 0,1.823 0.135,3.519 0.405,5.085 0.271,1.567 0.698,2.927 1.282,4.081 0.584,1.154 1.339,2.066 2.265,2.735 0.926,0.669 2.059,1.004 3.397,1.004 1.338,0 2.472,-0.342 3.397,-1.026 0.925,-0.684 1.681,-1.616 2.265,-2.799 0.584,-1.182 1.004,-2.549 1.261,-4.103 0.257,-1.551 0.385,-3.211 0.385,-4.977 z"
       id="path1678"
       style="fill:#ffffff" /><path
       fill="#fff"
       d="m 629.01042,134.70658 c -0.427,0.313 -0.961,0.563 -1.603,0.748 -0.641,0.185 -1.332,0.278 -2.072,0.278 -1.795,0 -3.119,-0.484 -3.975,-1.453 -0.854,-0.968 -1.281,-2.365 -1.281,-4.188 v -2.991 c 0,-0.94 -0.157,-1.802 -0.471,-2.585 -0.313,-0.783 -0.763,-1.446 -1.346,-1.987 -0.584,-0.541 -1.268,-0.961 -2.052,-1.26 -0.783,-0.299 -1.645,-0.449 -2.585,-0.449 h -2.82 v 14.486 h -3.803 v -30.512 h 7.136 c 1.566,0 2.998,0.164 4.295,0.491 1.296,0.328 2.407,0.819 3.333,1.475 0.926,0.656 1.646,1.481 2.158,2.479 0.513,0.998 0.77,2.151 0.77,3.461 0,0.912 -0.165,1.745 -0.492,2.5 -0.327,0.755 -0.762,1.417 -1.303,1.987 -0.542,0.57 -1.147,1.054 -1.816,1.453 -0.67,0.399 -1.36,0.684 -2.072,0.855 1.623,0.57 2.834,1.532 3.632,2.884 0.798,1.354 1.196,2.927 1.196,4.722 v 2.735 c 0,0.769 0.114,1.439 0.342,2.008 0.229,0.57 0.685,0.854 1.368,0.854 0.483,0 0.883,-0.057 1.196,-0.171 0.313,-0.113 0.626,-0.256 0.94,-0.427 z m -8.333,-21.965 c 0,-0.854 -0.171,-1.588 -0.513,-2.201 -0.342,-0.612 -0.805,-1.118 -1.389,-1.517 -0.584,-0.398 -1.275,-0.698 -2.072,-0.897 -0.798,-0.199 -1.652,-0.299 -2.564,-0.299 h -3.333 v 9.871 h 3.376 c 1.88,0 3.433,-0.42 4.658,-1.261 1.224,-0.839 1.837,-2.072 1.837,-3.696 z"
       id="path1680"
       style="fill:#ffffff" /><path
       fill="#fff"
       d="m 652.16992,113.96008 c 0,1.339 -0.277,2.55 -0.833,3.632 -0.556,1.083 -1.317,2.009 -2.286,2.778 -0.969,0.769 -2.13,1.361 -3.482,1.773 -1.354,0.413 -2.813,0.62 -4.38,0.62 h -2.692 v 12.734 h -3.675 v -30.468 h 6.794 c 3.333,0 5.926,0.798 7.777,2.393 1.852,1.596 2.777,3.775 2.777,6.538 z m -4.059,0 c 0,-1.88 -0.555,-3.355 -1.666,-4.423 -1.111,-1.068 -2.721,-1.603 -4.829,-1.603 h -3.119 v 11.879 h 2.692 c 1.025,0 1.958,-0.128 2.799,-0.384 0.84,-0.256 1.566,-0.634 2.179,-1.133 0.612,-0.498 1.09,-1.111 1.432,-1.837 0.342,-0.726 0.512,-1.559 0.512,-2.499 z"
       id="path1682"
       style="fill:#ffffff" /><path
       fill="#fff"
       d="m 679.47843,126.48058 c 0,1.425 -0.228,2.707 -0.684,3.846 -0.456,1.14 -1.104,2.108 -1.944,2.906 -0.841,0.798 -1.859,1.41 -3.056,1.837 -1.196,0.428 -2.536,0.641 -4.017,0.641 -1.453,0 -2.764,-0.192 -3.932,-0.577 -1.168,-0.385 -2.172,-0.947 -3.013,-1.688 -0.84,-0.741 -1.489,-1.646 -1.944,-2.714 -0.456,-1.068 -0.684,-2.3 -0.684,-3.696 v -22.22 h 3.803 v 21.751 c 0,1.909 0.513,3.383 1.539,4.423 1.025,1.04 2.436,1.56 4.23,1.56 1.823,0 3.269,-0.513 4.337,-1.539 1.068,-1.025 1.603,-2.479 1.603,-4.358 v -21.837 h 3.76 v 21.665 z"
       id="path1684"
       style="fill:#ffffff" /><path
       fill="#fff"
       d="m 705.71543,110.56458 c -0.998,-0.797 -2.059,-1.467 -3.184,-2.008 -1.126,-0.541 -2.315,-0.812 -3.568,-0.812 -0.655,0 -1.275,0.085 -1.858,0.256 -0.585,0.171 -1.098,0.435 -1.539,0.791 -0.441,0.356 -0.79,0.805 -1.047,1.346 -0.256,0.542 -0.385,1.168 -0.385,1.88 0,0.769 0.156,1.446 0.471,2.03 0.312,0.584 0.727,1.118 1.239,1.603 0.512,0.485 1.082,0.933 1.709,1.346 0.626,0.414 1.268,0.819 1.923,1.218 0.997,0.627 1.973,1.239 2.928,1.837 0.954,0.598 1.801,1.254 2.542,1.966 0.74,0.712 1.332,1.532 1.773,2.457 0.441,0.926 0.662,2.044 0.662,3.354 0,1.225 -0.228,2.344 -0.684,3.354 -0.456,1.012 -1.089,1.874 -1.901,2.585 -0.812,0.712 -1.773,1.268 -2.885,1.667 -1.11,0.398 -2.308,0.598 -3.589,0.598 -1.111,0 -2.13,-0.1 -3.056,-0.299 -0.926,-0.2 -1.773,-0.47 -2.543,-0.812 -0.769,-0.342 -1.481,-0.727 -2.137,-1.154 -0.656,-0.427 -1.268,-0.883 -1.837,-1.368 l 2.308,-2.991 c 0.455,0.399 0.946,0.798 1.474,1.197 0.528,0.399 1.097,0.769 1.71,1.111 0.612,0.342 1.274,0.62 1.987,0.833 0.711,0.213 1.48,0.32 2.307,0.32 1.396,0 2.55,-0.42 3.462,-1.261 0.911,-0.84 1.367,-1.944 1.367,-3.312 0,-0.883 -0.186,-1.659 -0.556,-2.329 -0.37,-0.669 -0.861,-1.267 -1.474,-1.795 -0.613,-0.527 -1.311,-1.018 -2.095,-1.474 -0.783,-0.456 -1.574,-0.925 -2.371,-1.41 -0.827,-0.513 -1.639,-1.047 -2.436,-1.603 -0.798,-0.556 -1.518,-1.182 -2.158,-1.88 -0.641,-0.698 -1.161,-1.496 -1.56,-2.393 -0.399,-0.897 -0.599,-1.944 -0.599,-3.141 0,-1.225 0.249,-2.322 0.748,-3.291 0.498,-0.968 1.146,-1.788 1.944,-2.457 0.797,-0.669 1.709,-1.175 2.734,-1.517 1.026,-0.342 2.08,-0.513 3.163,-0.513 1.822,0 3.511,0.314 5.063,0.94 1.553,0.627 2.927,1.41 4.124,2.351 z"
       id="path1686"
       style="fill:#ffffff" /><path
       fill="#fff"
       d="m 743.48599,110.56458 c -0.998,-0.797 -2.059,-1.467 -3.184,-2.008 -1.126,-0.541 -2.315,-0.812 -3.568,-0.812 -0.655,0 -1.275,0.085 -1.858,0.256 -0.585,0.171 -1.098,0.435 -1.539,0.791 -0.441,0.356 -0.79,0.805 -1.047,1.346 -0.256,0.542 -0.385,1.168 -0.385,1.88 0,0.769 0.156,1.446 0.471,2.03 0.312,0.584 0.727,1.118 1.239,1.603 0.512,0.485 1.082,0.933 1.709,1.346 0.626,0.414 1.268,0.819 1.923,1.218 0.997,0.627 1.973,1.239 2.928,1.837 0.954,0.598 1.801,1.254 2.542,1.966 0.74,0.712 1.332,1.532 1.773,2.457 0.441,0.926 0.662,2.044 0.662,3.354 0,1.225 -0.228,2.344 -0.684,3.354 -0.456,1.012 -1.089,1.874 -1.901,2.585 -0.812,0.712 -1.773,1.268 -2.885,1.667 -1.11,0.398 -2.308,0.598 -3.589,0.598 -1.111,0 -2.13,-0.1 -3.056,-0.299 -0.926,-0.2 -1.773,-0.47 -2.543,-0.812 -0.769,-0.342 -1.481,-0.727 -2.137,-1.154 -0.656,-0.427 -1.268,-0.883 -1.837,-1.368 l 2.308,-2.991 c 0.455,0.399 0.946,0.798 1.474,1.197 0.528,0.399 1.097,0.769 1.71,1.111 0.612,0.342 1.274,0.62 1.987,0.833 0.711,0.213 1.48,0.32 2.307,0.32 1.396,0 2.55,-0.42 3.462,-1.261 0.911,-0.84 1.367,-1.944 1.367,-3.312 0,-0.883 -0.186,-1.659 -0.556,-2.329 -0.37,-0.669 -0.861,-1.267 -1.474,-1.795 -0.613,-0.527 -1.311,-1.018 -2.095,-1.474 -0.783,-0.456 -1.574,-0.925 -2.371,-1.41 -0.827,-0.513 -1.639,-1.047 -2.436,-1.603 -0.798,-0.556 -1.518,-1.182 -2.158,-1.88 -0.641,-0.698 -1.161,-1.496 -1.56,-2.393 -0.399,-0.897 -0.599,-1.944 -0.599,-3.141 0,-1.225 0.249,-2.322 0.748,-3.291 0.498,-0.968 1.146,-1.788 1.944,-2.457 0.797,-0.669 1.709,-1.175 2.734,-1.517 1.026,-0.342 2.08,-0.513 3.163,-0.513 1.822,0 3.511,0.314 5.063,0.94 1.553,0.627 2.927,1.41 4.124,2.351 z"
       id="path1688"
       style="fill:#ffffff" /><path
       fill="#fff"
       d="m 770.15299,110.90458 c -0.684,-0.968 -1.517,-1.745 -2.5,-2.329 -0.983,-0.583 -2.158,-0.876 -3.525,-0.876 -1.254,0 -2.329,0.356 -3.227,1.068 -0.897,0.712 -1.631,1.66 -2.201,2.842 -0.57,1.183 -0.983,2.542 -1.239,4.081 -0.256,1.538 -0.385,3.148 -0.385,4.829 0,1.653 0.128,3.22 0.385,4.701 0.256,1.481 0.676,2.785 1.261,3.91 0.583,1.125 1.332,2.023 2.243,2.692 0.912,0.67 2.022,1.004 3.333,1.004 1.396,0 2.542,-0.256 3.44,-0.769 0.897,-0.513 1.73,-1.097 2.5,-1.752 l 2.521,2.521 c -0.912,0.883 -2.08,1.631 -3.504,2.244 -1.425,0.612 -3.077,0.918 -4.957,0.918 -2.023,0 -3.761,-0.392 -5.213,-1.175 -1.453,-0.783 -2.636,-1.866 -3.547,-3.248 -0.912,-1.381 -1.581,-3.013 -2.008,-4.893 -0.428,-1.88 -0.641,-3.932 -0.641,-6.154 0,-2.335 0.249,-4.479 0.748,-6.431 0.498,-1.951 1.225,-3.632 2.18,-5.042 0.954,-1.41 2.143,-2.514 3.568,-3.312 1.424,-0.797 3.062,-1.196 4.915,-1.196 1.994,0 3.718,0.399 5.17,1.196 1.453,0.798 2.664,1.81 3.632,3.034 z"
       id="path1690"
       style="fill:#ffffff" /><path
       fill="#fff"
       d="m 802.47093,134.70658 c -0.4271,0.313 -0.9611,0.563 -1.6031,0.748 -0.6409,0.185 -1.3319,0.278 -2.07195,0.278 -1.795,0 -3.119,-0.484 -3.975,-1.453 -0.854,-0.968 -1.281,-2.365 -1.281,-4.188 v -2.991 c 0,-0.94 -0.157,-1.802 -0.471,-2.585 -0.313,-0.783 -0.763,-1.446 -1.346,-1.987 -0.584,-0.541 -1.268,-0.961 -2.052,-1.26 -0.783,-0.299 -1.645,-0.449 -2.585,-0.449 h -2.82 v 14.486 h -3.803 v -30.512 h 7.136 c 1.566,0 2.998,0.164 4.295,0.491 1.296,0.328 2.407,0.819 3.333,1.475 0.926,0.656 1.646,1.481 2.158,2.479 0.513,0.998 0.77,2.151 0.77,3.461 0,0.912 -0.165,1.745 -0.492,2.5 -0.327,0.755 -0.762,1.417 -1.303,1.987 -0.542,0.57 -1.147,1.054 -1.816,1.453 -0.67,0.399 -1.36,0.684 -2.072,0.855 1.623,0.57 2.834,1.532 3.632,2.884 0.798,1.354 1.196,2.927 1.196,4.722 v 2.735 c 0,0.769 0.114,1.439 0.342,2.008 0.229,0.57 0.685,0.854 1.368,0.854 0.48295,0 0.88295,-0.057 1.19595,-0.171 0.313,-0.113 0.626,-0.256 0.94,-0.427 z m -8.33305,-21.965 c 0,-0.854 -0.171,-1.588 -0.513,-2.201 -0.342,-0.612 -0.805,-1.118 -1.389,-1.517 -0.584,-0.398 -1.275,-0.698 -2.072,-0.897 -0.798,-0.199 -1.652,-0.299 -2.564,-0.299 h -3.333 v 9.871 h 3.376 c 1.88,0 3.433,-0.42 4.658,-1.261 1.224,-0.839 1.837,-2.072 1.837,-3.696 z"
       id="path1692"
       style="fill:#ffffff" /><path
       fill="#fff"
       d="m 826.50673,135.49708 -2.265,-8.418 h -11.281 l -2.479,8.418 h -4.0611 l 9.872,-30.468 h 5.4701 l 8.7169,30.468 z m -7.093,-27.605 h -0.77 l -4.7431,16.153 h 9.6151 z"
       id="path1694"
       style="fill:#ffffff" /><path
       fill="#fff"
       d="m 856.17522,113.96008 c 0,1.339 -0.277,2.55 -0.833,3.632 -0.556,1.083 -1.317,2.009 -2.286,2.778 -0.969,0.769 -2.13,1.361 -3.48199,1.773 -1.354,0.413 -2.813,0.62 -4.38,0.62 h -2.692 v 12.734 h -3.675 v -30.468 h 6.794 c 3.333,0 5.92599,0.798 7.77699,2.393 1.852,1.596 2.777,3.775 2.777,6.538 z m -4.059,0 c 0,-1.88 -0.555,-3.355 -1.66599,-4.423 -1.111,-1.068 -2.721,-1.603 -4.829,-1.603 h -3.119 v 11.879 h 2.692 c 1.025,0 1.958,-0.128 2.799,-0.384 0.84,-0.256 1.566,-0.634 2.179,-1.133 0.612,-0.498 1.08999,-1.111 1.43199,-1.837 0.342,-0.726 0.512,-1.559 0.512,-2.499 z"
       id="path1696"
       style="fill:#ffffff" /><path
       fill="#fff"
       d="m 879.87922,108.16958 h -11.666 v 9.572 h 9.657 l -0.513,3.205 h -9.145 v 11.281 h 12.264 l -0.47,3.291 h -15.469 v -30.511 l 15.982,0.042 z"
       id="path1698"
       style="fill:#ffffff" /><path
       fill="#fff"
       d="m 912.23912,134.70658 c -0.427,0.313 -0.961,0.563 -1.603,0.748 -0.641,0.185 -1.332,0.278 -2.072,0.278 -1.795,0 -3.119,-0.484 -3.975,-1.453 -0.854,-0.968 -1.281,-2.365 -1.281,-4.188 v -2.991 c 0,-0.94 -0.157,-1.802 -0.471,-2.585 -0.313,-0.783 -0.763,-1.446 -1.346,-1.987 -0.584,-0.541 -1.268,-0.961 -2.052,-1.26 -0.783,-0.299 -1.645,-0.449 -2.585,-0.449 h -2.82 v 14.486 h -3.803 v -30.512 h 7.136 c 1.566,0 2.998,0.164 4.295,0.491 1.296,0.328 2.407,0.819 3.333,1.475 0.926,0.656 1.646,1.481 2.158,2.479 0.513,0.998 0.77,2.151 0.77,3.461 0,0.912 -0.165,1.745 -0.492,2.5 -0.327,0.755 -0.762,1.417 -1.303,1.987 -0.542,0.57 -1.147,1.054 -1.816,1.453 -0.67,0.399 -1.36,0.684 -2.072,0.855 1.623,0.57 2.834,1.532 3.632,2.884 0.798,1.354 1.196,2.927 1.196,4.722 v 2.735 c 0,0.769 0.114,1.439 0.342,2.008 0.229,0.57 0.685,0.854 1.368,0.854 0.483,0 0.883,-0.057 1.196,-0.171 0.313,-0.113 0.626,-0.256 0.94,-0.427 z m -8.333,-21.965 c 0,-0.854 -0.171,-1.588 -0.513,-2.201 -0.342,-0.612 -0.805,-1.118 -1.389,-1.517 -0.584,-0.398 -1.275,-0.698 -2.072,-0.897 -0.798,-0.199 -1.652,-0.299 -2.564,-0.299 h -3.333 v 9.871 h 3.376 c 1.88,0 3.433,-0.42 4.658,-1.261 1.224,-0.839 1.837,-2.072 1.837,-3.696 z"
       id="path1702"
       style="fill:#ffffff" /></g></g></svg>
