<?xml version="1.0" encoding="UTF-8" standalone="no"?>
<svg
   xmlns:dc="http://purl.org/dc/elements/1.1/"
   xmlns:cc="http://creativecommons.org/ns#"
   xmlns:rdf="http://www.w3.org/1999/02/22-rdf-syntax-ns#"
   xmlns:svg="http://www.w3.org/2000/svg"
   xmlns="http://www.w3.org/2000/svg"
   xmlns:xlink="http://www.w3.org/1999/xlink"
   xmlns:sodipodi="http://sodipodi.sourceforge.net/DTD/sodipodi-0.dtd"
   xmlns:inkscape="http://www.inkscape.org/namespaces/inkscape"
   width="405.39566mm"
   height="43.612179mm"
   viewBox="0 0 405.39565 43.612178"
   version="1.1"
   id="svg8"
   inkscape:version="1.0.2 (e86c8708, 2021-01-15)"
   sodipodi:docname="pcs-title.svg"
   inkscape:export-filename="/Users/florent/Documents/GitHub/Press corpus scraper/pcs_chrome/icons/icon-96.png"
   inkscape:export-xdpi="20.809999"
   inkscape:export-ydpi="20.809999">
  <defs
     id="defs2">
    <linearGradient
       inkscape:collect="always"
       id="linearGradient16">
      <stop
         style="stop-color:#000000;stop-opacity:1"
         offset="0"
         id="stop12" />
      <stop
         style="stop-color:#999999;stop-opacity:1"
         offset="1"
         id="stop14" />
    </linearGradient>
    <linearGradient
       inkscape:collect="always"
       xlink:href="#linearGradient16"
       id="linearGradient18"
       x1="92.98214"
       y1="176.1369"
       x2="92.98214"
       y2="59.720238"
       gradientUnits="userSpaceOnUse" />
    <filter
       inkscape:collect="always"
       style="color-interpolation-filters:sRGB"
       id="filter929"
       x="-0.035432838"
       width="1.0708658"
       y="-0.074381195"
       height="1.1487623">
      <feGaussianBlur
         inkscape:collect="always"
         stdDeviation="1.5207822"
         id="feGaussianBlur931" />
    </filter>
  </defs>
  <sodipodi:namedview
     id="base"
     pagecolor="#ffffff"
     bordercolor="#666666"
     borderopacity="1.0"
     inkscape:pageopacity="0.0"
     inkscape:pageshadow="2"
     inkscape:zoom="0.35"
     inkscape:cx="964.19772"
     inkscape:cy="-275.07134"
     inkscape:document-units="mm"
     inkscape:current-layer="layer1"
     inkscape:document-rotation="0"
     showgrid="false"
     inkscape:window-width="1421"
     inkscape:window-height="847"
     inkscape:window-x="349"
     inkscape:window-y="25"
     inkscape:window-maximized="0"
     fit-margin-top="0"
     fit-margin-left="0"
     fit-margin-right="0"
     fit-margin-bottom="0" />
  <metadata
     id="metadata5">
    <rdf:RDF>
      <cc:Work
         rdf:about="">
        <dc:format>image/svg+xml</dc:format>
        <dc:type
           rdf:resource="http://purl.org/dc/dcmitype/StillImage" />
        <dc:title></dc:title>
      </cc:Work>
    </rdf:RDF>
  </metadata>
  <g
     inkscape:label="Layer 1"
     inkscape:groupmode="layer"
     id="layer1"
     transform="translate(276.20608,-249.67215)">
    <path
       id="rect10"
       style="fill:url(#linearGradient18);fill-opacity:1;stroke-width:0.264583"
       d="M 41.055061,59.720234 H 144.15327 c 3.89862,0 7.03721,3.138593 7.03721,7.037205 V 169.85565 c 0,3.89861 -3.13859,7.03721 -7.03721,7.03721 H 41.055061 c -3.898611,0 -7.037204,-3.1386 -7.037204,-7.03721 V 66.757439 c 0,-3.898612 3.138593,-7.037205 7.037204,-7.037205 z"
       inkscape:export-filename="/Users/florent/Documents/GitHub/press_corpus_scraper/pcs/icons/icon-128.png"
       inkscape:export-xdpi="27.75"
       inkscape:export-ydpi="27.75" />
    <text
       xml:space="preserve"
       style="font-size:14.1111px;line-height:1.25;font-family:sans-serif;stroke-width:0.264583"
       x="-86.934525"
       y="3.7797618"
       id="text845"><tspan
         sodipodi:role="line"
         id="tspan843"
         x="-86.934525"
         y="3.7797618"
         style="stroke-width:0.264583" /></text>
    <text
       xml:space="preserve"
       style="font-size:14.1111px;line-height:1.25;font-family:sans-serif;stroke-width:0.264583"
       x="-122.46429"
       y="87.690468"
       id="text849"><tspan
         sodipodi:role="line"
         id="tspan847"
         x="-122.46429"
         y="87.690468"
         style="stroke-width:0.264583" /></text>
    <g
       aria-label="PCS"
       id="text857"
       style="font-size:59.5388px;line-height:1.25;font-family:sans-serif;fill:#000000;stroke-width:0.310098;filter:url(#filter929)"
       inkscape:export-filename="/Users/florent/Documents/GitHub/press_corpus_scraper/pcs/icons/icon-128.png"
       inkscape:export-xdpi="27.75"
       inkscape:export-ydpi="27.75">
      <path
         d="m 46.987666,117.37204 h 1.637317 v 9.27813 c -3.522712,1.83578 -5.904264,4.71349 -6.995809,6.74773 h 1.14116 c 1.538086,-1.73654 3.621944,-2.97694 5.854649,-3.62194 v 8.38505 1.43885 h 6.946193 3.473097 v -1.43885 0 c 0,-2.23271 0,-4.51503 0,-6.79735 0.545772,0.39693 1.091545,0.79385 1.587701,1.24039 l 12.999305,-7.04542 V 102.3385 c -1.686933,-2.33194 -3.770791,-4.366182 -6.152343,-6.053114 l -8.434663,6.201954 c 0,-1.68693 0,-3.324246 0,-5.011178 h -1.438854 c 0,2.034242 0,4.018868 0,6.053108 l -2.034243,1.43886 v -0.89308 c 0,-5.705806 -3.373865,-6.648504 -5.656186,-6.648504 -3.870022,0 -6.598883,2.976944 -6.698115,6.201954 h 1.190776 c 0.198463,-1.14116 0.992314,-2.38155 2.331937,-2.38155 1.290007,0 1.885395,1.14116 1.885395,2.92733 v 8.2362 c -0.09923,0 -0.148847,0 -0.248078,0 -2.877709,0 -5.556955,2.18309 -5.556955,5.4081 0,0.59539 0.09923,1.19078 0.297694,1.78617 h 1.14116 c 0,-0.0496 0,-0.0992 0,-0.0992 0,-1.43886 0.843467,-2.13348 2.728862,-2.13348 z m 20.342423,-11.70929 v 3.57232 l -8.285816,4.16772 c 0,-3.12579 0,-6.25157 0,-9.37736 l 3.621944,-2.5304 c 1.686932,1.19078 3.274633,2.62963 4.663872,4.16772 z m -8.285816,9.32774 8.285816,-4.16771 v 3.62194 l -8.285816,4.16772 c 0,-1.19078 0,-2.38156 0,-3.62195 z m 0,5.20965 8.285816,-4.16772 v 11.31237 l -1.091545,0.64501 c -2.133473,-1.53809 -4.614256,-2.58002 -7.194271,-3.02656 0,-1.5877 0,-3.1754 0,-4.7631 z m -1.438854,4.61425 c -0.446541,-0.0496 -0.893082,-0.0496 -1.339623,-0.0496 -0.198463,0 -0.446541,0 -0.69462,0 V 106.4566 l 2.034243,-1.43886 c 0,6.59889 0,13.19777 0,19.79665 z m 0,5.75542 c 0,2.5304 0,5.0608 0,7.5912 h -2.034243 v -8.38505 c 0.744235,0.19846 1.389239,0.49616 2.034243,0.79385 z"
         style="font-style:normal;font-variant:normal;font-weight:normal;font-stretch:normal;font-size:59.5388px;font-family:Chomsky;-inkscape-font-specification:'Chomsky, Normal';font-variant-ligatures:normal;font-variant-caps:normal;font-variant-numeric:normal;font-variant-east-asian:normal;fill:#000000;stroke-width:0.310098"
         id="path934" />
      <path
         d="m 102.72156,95.888461 v 0 0 l -13.048917,7.988119 c 1.290008,-2.13347 3.125787,-3.8204 5.308876,-4.961564 l -0.496156,-0.694619 c -7.194272,2.431163 -13.545077,9.476593 -13.545077,18.705103 0,9.4766 7.44235,18.01049 16.918942,18.01049 7.690432,0 13.644312,-5.35849 13.991622,-12.80084 h -0.9427 c -1.73655,3.47309 -5.11042,6.49965 -9.77429,7.09504 0,-8.88121 0,-17.76241 0,-26.64361 1.93501,1.09154 3.96926,2.08385 6.05311,2.92732 l 5.90427,-6.152343 -0.39693,-0.496157 -1.5877,1.29001 c -3.1754,-0.992316 -5.90426,-2.43117 -8.38505,-4.266949 z M 88.33302,121.73822 c -0.843466,-2.18309 -1.290007,-4.71349 -1.290007,-7.39273 0,-3.02656 0.496157,-5.7058 1.438854,-8.03774 l 2.629631,-1.63732 c 0,5.30888 0,10.56814 0,15.87702 z m 0.545773,1.19078 8.633125,-3.62195 V 100.7508 l 0.396926,-0.19847 c 0.595388,0.39693 1.190776,0.79385 1.786164,1.19078 0,9.1789 0,18.40741 0,27.58631 -0.04962,0 -0.148847,0 -0.248079,0 -5.060798,0 -8.58351,-2.5304 -10.568136,-6.40042 z"
         style="font-style:normal;font-variant:normal;font-weight:normal;font-stretch:normal;font-size:59.5388px;font-family:Chomsky;-inkscape-font-specification:'Chomsky, Normal';font-variant-ligatures:normal;font-variant-caps:normal;font-variant-numeric:normal;font-variant-east-asian:normal;fill:#000000;stroke-width:0.310098"
         id="path936" />
      <path
         d="m 116.20772,104.52159 v 9.97275 l 6.94619,4.56464 -0.44654,0.39692 c -3.57233,3.1754 -8.98043,8.03774 -8.98043,13.69393 0,6.15234 5.80503,10.22082 12.30468,10.22082 6.54927,0 12.85046,-4.1181 14.28931,-9.92313 l -1.33962,-0.34731 c -1.43885,4.71349 -7.78966,6.45004 -12.80084,6.45004 -4.31656,0 -10.02237,-0.84347 -10.96506,-5.25926 -0.44654,-3.62195 3.27463,-4.26695 6.05311,-4.26695 3.72117,0 6.74773,1.93501 8.83159,4.21733 l 13.59469,-8.58351 v -12.45353 c -2.08386,-1.68693 -4.56464,-3.12579 -7.34312,-4.06849 3.87002,-3.47309 8.28582,-7.69042 8.28582,-14.090846 v -0.694619 h -0.49616 v -0.04962 h -0.19846 -0.69462 c 0,0 0,0 0,0 v 0 c -0.24808,3.026556 -2.92733,4.862335 -5.95388,4.862335 -2.87771,0 -5.60657,-1.438854 -7.49197,-3.175402 z m 16.72048,21.83089 c -2.33194,-1.29001 -5.0608,-2.18309 -8.18658,-2.18309 -2.62964,0 -5.01119,0.79385 -6.84697,2.13347 1.78617,-2.33193 4.06849,-4.31656 5.7058,-5.80503 l 7.5912,-6.74773 1.73655,0.84347 z m 1.38924,0.79385 v -11.85814 l 2.87771,1.38923 v 11.41161 l -0.9427,0.44654 c -0.59539,-0.44654 -1.24039,-0.9427 -1.93501,-1.38924 z m -8.88121,-24.41091 v 10.02237 l -2.72886,-1.93501 v -8.5339 l 0.9427,-0.645 c 0.54577,0.39692 1.14116,0.74423 1.78616,1.09154 z m 1.38924,0.74424 c 2.08386,0.99231 4.46541,1.73655 7.19427,1.73655 2.13348,0 4.16772,-0.59539 5.85465,-1.63732 -1.73655,2.13347 -3.8204,3.96925 -5.60657,5.55695 l -6.15234,5.45773 -1.29001,-0.89309 z"
         style="font-style:normal;font-variant:normal;font-weight:normal;font-stretch:normal;font-size:59.5388px;font-family:Chomsky;-inkscape-font-specification:'Chomsky, Normal';font-variant-ligatures:normal;font-variant-caps:normal;font-variant-numeric:normal;font-variant-east-asian:normal;fill:#000000;stroke-width:0.310098"
         id="path938" />
    </g>
    <g
       aria-label="PCS"
       id="text851"
       style="font-size:59.5388px;line-height:1.25;font-family:sans-serif;fill:#ffffff;stroke-width:0.310098"
       inkscape:export-filename="/Users/florent/Documents/GitHub/press_corpus_scraper/pcs/icons/icon-128.png"
       inkscape:export-xdpi="27.75"
       inkscape:export-ydpi="27.75">
      <path
         d="m 46.458499,116.84288 h 1.637317 v 9.27813 c -3.522712,1.83578 -5.904264,4.71349 -6.995809,6.74773 h 1.14116 c 1.538086,-1.73654 3.621944,-2.97694 5.854649,-3.62194 v 8.38505 1.43885 h 6.946193 3.473097 v -1.43885 0 c 0,-2.23271 0,-4.51503 0,-6.79735 0.545772,0.39693 1.091544,0.79385 1.587701,1.24039 l 12.999305,-7.04542 v -23.22013 c -1.686933,-2.331939 -3.770791,-4.366181 -6.152343,-6.053114 l -8.434663,6.201954 c 0,-1.68693 0,-3.324245 0,-5.011178 h -1.438855 c 0,2.034243 0,4.018868 0,6.053108 l -2.034242,1.43886 v -0.89308 c 0,-5.705806 -3.373865,-6.648503 -5.656186,-6.648503 -3.870022,0 -6.598883,2.97694 -6.698115,6.201953 h 1.190776 c 0.198463,-1.14116 0.992314,-2.38155 2.331937,-2.38155 1.290007,0 1.885395,1.14116 1.885395,2.92733 v 8.2362 c -0.09923,0 -0.148847,0 -0.248079,0 -2.877708,0 -5.556954,2.18309 -5.556954,5.40811 0,0.59538 0.09923,1.19077 0.297694,1.78616 h 1.14116 c 0,-0.0496 0,-0.0992 0,-0.0992 0,-1.43886 0.843467,-2.13348 2.728862,-2.13348 z m 20.342423,-11.70929 v 3.57233 l -8.285816,4.16771 c 0,-3.12579 0,-6.25157 0,-9.37736 l 3.621943,-2.5304 c 1.686933,1.19078 3.274634,2.62963 4.663873,4.16772 z m -8.285816,9.32774 8.285816,-4.16771 v 3.62194 l -8.285816,4.16772 c 0,-1.19078 0,-2.38156 0,-3.62195 z m 0,5.20965 8.285816,-4.16772 v 11.31237 l -1.091545,0.64501 c -2.133473,-1.53809 -4.614257,-2.58002 -7.194271,-3.02656 0,-1.5877 0,-3.1754 0,-4.7631 z m -1.438855,4.61425 c -0.446541,-0.0496 -0.893082,-0.0496 -1.339623,-0.0496 -0.198462,0 -0.446541,0 -0.694619,0 v -18.30818 l 2.034242,-1.43886 c 0,6.59889 0,13.19777 0,19.79665 z m 0,5.75542 c 0,2.5304 0,5.0608 0,7.5912 h -2.034242 v -8.38505 c 0.744235,0.19846 1.389239,0.49616 2.034242,0.79385 z"
         style="font-style:normal;font-variant:normal;font-weight:normal;font-stretch:normal;font-size:59.5388px;font-family:Chomsky;-inkscape-font-specification:'Chomsky, Normal';font-variant-ligatures:normal;font-variant-caps:normal;font-variant-numeric:normal;font-variant-east-asian:normal;fill:#ffffff;stroke-width:0.310098"
         id="path941" />
      <path
         d="m 102.1924,95.359301 v 0 0 l -13.048924,7.988119 c 1.290007,-2.13347 3.125787,-3.820403 5.308876,-4.961563 l -0.496156,-0.69462 c -7.194272,2.431163 -13.545077,9.476593 -13.545077,18.705103 0,9.4766 7.44235,18.01049 16.918942,18.01049 7.690429,0 13.644309,-5.35849 13.991619,-12.80084 h -0.9427 c -1.73655,3.47309 -5.11041,6.49965 -9.77429,7.09504 0,-8.88121 0,-17.76241 0,-26.64361 1.93502,1.09154 3.96926,2.08385 6.05312,2.92732 l 5.90426,-6.152342 -0.39692,-0.496157 -1.58771,1.290007 c -3.1754,-0.992313 -5.90426,-2.431167 -8.38504,-4.266947 z M 87.803853,121.20906 c -0.843466,-2.18309 -1.290007,-4.71349 -1.290007,-7.39273 0,-3.02656 0.496156,-5.7058 1.438854,-8.03774 l 2.62963,-1.63732 c 0,5.30888 0,10.56814 0,15.87702 z m 0.545772,1.19078 8.633126,-3.62194 v -18.55626 l 0.396926,-0.19847 c 0.595388,0.39693 1.190776,0.79385 1.786164,1.19078 0,9.1789 0,18.40741 0,27.58631 -0.04962,0 -0.148847,0 -0.248079,0 -5.060798,0 -8.58351,-2.5304 -10.568137,-6.40042 z"
         style="font-style:normal;font-variant:normal;font-weight:normal;font-stretch:normal;font-size:59.5388px;font-family:Chomsky;-inkscape-font-specification:'Chomsky, Normal';font-variant-ligatures:normal;font-variant-caps:normal;font-variant-numeric:normal;font-variant-east-asian:normal;fill:#ffffff;stroke-width:0.310098"
         id="path943" />
      <path
         d="m 115.67855,103.99243 v 9.97275 l 6.9462,4.56464 -0.44654,0.39692 c -3.57233,3.1754 -8.98044,8.03774 -8.98044,13.69393 0,6.15234 5.80503,10.22082 12.30469,10.22082 6.54926,0 12.85045,-4.1181 14.28931,-9.92313 l -1.33963,-0.34731 c -1.43885,4.71349 -7.78966,6.45004 -12.80084,6.45004 -4.31656,0 -10.02236,-0.84347 -10.96506,-5.25926 -0.44654,-3.62195 3.27463,-4.26695 6.05311,-4.26695 3.72118,0 6.74773,1.93501 8.83159,4.21733 l 13.59469,-8.58351 v -12.45353 c -2.08386,-1.68693 -4.56464,-3.12579 -7.34312,-4.06849 3.87003,-3.47309 8.28582,-7.69042 8.28582,-14.090845 v -0.69462 h -0.49616 V 93.7716 h -0.19846 -0.69462 c 0,0 0,0 0,0 v 0 c -0.24808,3.026555 -2.92732,4.862335 -5.95388,4.862335 -2.87771,0 -5.60657,-1.438854 -7.49196,-3.175403 z m 16.72048,21.83089 c -2.33193,-1.29001 -5.0608,-2.18309 -8.18658,-2.18309 -2.62963,0 -5.01118,0.79385 -6.84696,2.13347 1.78616,-2.33193 4.06848,-4.31656 5.7058,-5.80503 l 7.59119,-6.74773 1.73655,0.84347 z m 1.38924,0.79385 v -11.85814 l 2.87771,1.38924 v 11.4116 l -0.9427,0.44654 c -0.59539,-0.44654 -1.24039,-0.9427 -1.93501,-1.38924 z m -8.8812,-24.41091 v 10.02237 l -2.72886,-1.93501 v -8.5339 l 0.94269,-0.645 c 0.54578,0.39692 1.14116,0.74423 1.78617,1.09154 z m 1.38924,0.74424 c 2.08385,0.99231 4.46541,1.73655 7.19427,1.73655 2.13347,0 4.16771,-0.59539 5.85465,-1.63732 -1.73655,2.13347 -3.82041,3.96925 -5.60657,5.55695 l -6.15235,5.45773 -1.29,-0.89308 z"
         style="font-style:normal;font-variant:normal;font-weight:normal;font-stretch:normal;font-size:59.5388px;font-family:Chomsky;-inkscape-font-specification:'Chomsky, Normal';font-variant-ligatures:normal;font-variant-caps:normal;font-variant-numeric:normal;font-variant-east-asian:normal;fill:#ffffff;stroke-width:0.310098"
         id="path945" />
    </g>
    <path
       d="m -227.95221,177.31907 h 1.63732 v 9.27813 c -3.52272,1.83578 -5.90427,4.71349 -6.99581,6.74773 h 1.14116 c 1.53808,-1.73654 3.62194,-2.97694 5.85465,-3.62194 v 8.38505 1.43885 h 6.94619 3.4731 v -1.43885 0 c 0,-2.23271 0,-4.51503 0,-6.79735 0.54577,0.39693 1.09154,0.79385 1.5877,1.24039 l 12.9993,-7.04542 v -23.22013 c -1.68693,-2.33194 -3.77079,-4.36618 -6.15234,-6.05311 l -8.43466,6.20195 c 0,-1.68693 0,-3.32425 0,-5.01118 h -1.43886 c 0,2.03425 0,4.01887 0,6.05311 l -2.03424,1.43886 v -0.89308 c 0,-5.70581 -3.37387,-6.6485 -5.65619,-6.6485 -3.87002,0 -6.59888,2.97694 -6.69811,6.20195 h 1.19077 c 0.19847,-1.14116 0.99232,-2.38155 2.33194,-2.38155 1.29001,0 1.8854,1.14116 1.8854,2.92733 v 8.2362 c -0.0992,0 -0.14885,0 -0.24808,0 -2.87771,0 -5.55696,2.18309 -5.55696,5.40811 0,0.59538 0.0992,1.19077 0.2977,1.78616 h 1.14116 c 0,-0.0496 0,-0.0992 0,-0.0992 0,-1.43886 0.84346,-2.13348 2.72886,-2.13348 z m 20.34242,-11.70929 v 3.57233 l -8.28581,4.16771 c 0,-3.12579 0,-6.25157 0,-9.37736 l 3.62194,-2.5304 c 1.68693,1.19078 3.27463,2.62963 4.66387,4.16772 z m -8.28581,9.32774 8.28581,-4.16771 v 3.62194 l -8.28581,4.16772 c 0,-1.19078 0,-2.38156 0,-3.62195 z m 0,5.20965 8.28581,-4.16772 v 11.31237 l -1.09154,0.64501 c -2.13348,-1.53809 -4.61426,-2.58002 -7.19427,-3.02656 0,-1.5877 0,-3.1754 0,-4.7631 z m -1.43886,4.61425 c -0.44654,-0.0496 -0.89308,-0.0496 -1.33962,-0.0496 -0.19846,0 -0.44654,0 -0.69462,0 v -18.30818 l 2.03424,-1.43886 c 0,6.59889 0,13.19777 0,19.79665 z m 0,5.75542 c 0,2.5304 0,5.0608 0,7.5912 h -2.03424 v -8.38505 c 0.74423,0.19846 1.38924,0.49616 2.03424,0.79385 z"
       style="font-style:normal;font-variant:normal;font-weight:normal;font-stretch:normal;font-size:59.5388px;line-height:1.25;font-family:Chomsky;-inkscape-font-specification:'Chomsky, Normal';font-variant-ligatures:normal;font-variant-caps:normal;font-variant-numeric:normal;font-variant-east-asian:normal;fill:#000000;stroke-width:0.310098"
       id="path2039" />
    <path
       d="m -172.21831,155.83549 v 0 0 l -13.04892,7.98812 c 1.29,-2.13347 3.12578,-3.8204 5.30887,-4.96156 l -0.49615,-0.69462 c -7.19428,2.43116 -13.54508,9.47659 -13.54508,18.7051 0,9.4766 7.44235,18.01049 16.91894,18.01049 7.69043,0 13.64431,-5.35849 13.99162,-12.80084 h -0.9427 c -1.73655,3.47309 -5.11041,6.49965 -9.77429,7.09504 0,-8.88121 0,-17.76241 0,-26.64361 1.93502,1.09154 3.96926,2.08385 6.05312,2.92732 l 5.90426,-6.15234 -0.39692,-0.49616 -1.58771,1.29001 c -3.1754,-0.99231 -5.90426,-2.43117 -8.38504,-4.26695 z m -14.38855,25.84976 c -0.84346,-2.18309 -1.29,-4.71349 -1.29,-7.39273 0,-3.02656 0.49615,-5.7058 1.43885,-8.03774 l 2.62963,-1.63732 c 0,5.30888 0,10.56814 0,15.87702 z m 0.54578,1.19078 8.63312,-3.62194 v -18.55626 l 0.39693,-0.19847 c 0.59539,0.39693 1.19077,0.79385 1.78616,1.19078 0,9.1789 0,18.40741 0,27.58631 -0.0496,0 -0.14885,0 -0.24808,0 -5.0608,0 -8.58351,-2.5304 -10.56813,-6.40042 z"
       style="font-style:normal;font-variant:normal;font-weight:normal;font-stretch:normal;font-size:59.5388px;line-height:1.25;font-family:Chomsky;-inkscape-font-specification:'Chomsky, Normal';font-variant-ligatures:normal;font-variant-caps:normal;font-variant-numeric:normal;font-variant-east-asian:normal;fill:#000000;stroke-width:0.310098"
       id="path2041" />
    <path
       d="m -158.73216,164.46862 v 9.97275 l 6.9462,4.56464 -0.44654,0.39692 c -3.57233,3.1754 -8.98044,8.03774 -8.98044,13.69393 0,6.15234 5.80503,10.22082 12.30469,10.22082 6.54926,0 12.85045,-4.1181 14.28931,-9.92313 l -1.33963,-0.34731 c -1.43885,4.71349 -7.78966,6.45004 -12.80084,6.45004 -4.31656,0 -10.02236,-0.84347 -10.96506,-5.25926 -0.44654,-3.62195 3.27463,-4.26695 6.05311,-4.26695 3.72118,0 6.74773,1.93501 8.83159,4.21733 l 13.59469,-8.58351 v -12.45353 c -2.08386,-1.68693 -4.56464,-3.12579 -7.34312,-4.06849 3.87003,-3.47309 8.28582,-7.69042 8.28582,-14.09085 v -0.69462 h -0.49616 v -0.0496 h -0.19846 -0.69462 c 0,0 0,0 0,0 v 0 c -0.24808,3.02655 -2.92732,4.86233 -5.95388,4.86233 -2.87771,0 -5.60657,-1.43885 -7.49196,-3.1754 z m 16.72048,21.83089 c -2.33193,-1.29001 -5.0608,-2.18309 -8.18658,-2.18309 -2.62963,0 -5.01118,0.79385 -6.84696,2.13347 1.78616,-2.33193 4.06848,-4.31656 5.7058,-5.80503 l 7.59119,-6.74773 1.73655,0.84347 z m 1.38924,0.79385 v -11.85814 l 2.87771,1.38924 v 11.4116 l -0.9427,0.44654 c -0.59539,-0.44654 -1.24039,-0.9427 -1.93501,-1.38924 z m -8.8812,-24.41091 v 10.02237 l -2.72886,-1.93501 v -8.5339 l 0.94269,-0.645 c 0.54578,0.39692 1.14116,0.74423 1.78617,1.09154 z m 1.38924,0.74424 c 2.08385,0.99231 4.46541,1.73655 7.19427,1.73655 2.13347,0 4.16771,-0.59539 5.85465,-1.63732 -1.73655,2.13347 -3.82041,3.96925 -5.60657,5.55695 l -6.15235,5.45773 -1.29,-0.89308 z"
       style="font-style:normal;font-variant:normal;font-weight:normal;font-stretch:normal;font-size:59.5388px;line-height:1.25;font-family:Chomsky;-inkscape-font-specification:'Chomsky, Normal';font-variant-ligatures:normal;font-variant-caps:normal;font-variant-numeric:normal;font-variant-east-asian:normal;fill:#000000;stroke-width:0.310098"
       id="path2043" />
    <g
       aria-label="Press Corpus Scraper"
       id="text2052"
       style="font-size:7.05556px;line-height:1.25;font-family:sans-serif;fill:#00254c;fill-opacity:1;stroke-width:0.264583">
      <path
         d="m -271.44358,270.17737 h 1.45521 v 8.24619 c -3.13091,1.6316 -5.24757,4.18924 -6.21771,5.99722 h 1.01423 c 1.36702,-1.5434 3.2191,-2.64583 5.20348,-3.21909 v 7.45243 1.27882 h 6.17361 3.08681 v -1.27882 0 c 0,-1.98438 0,-4.01285 0,-6.04132 0.48507,0.35278 0.97014,0.70555 1.41111,1.10243 l 11.55348,-6.26181 v -20.63751 c -1.49931,-2.07257 -3.35139,-3.88056 -5.46806,-5.37987 l -7.49653,5.51216 c 0,-1.49931 0,-2.95452 0,-4.45382 h -1.27882 c 0,1.80798 0,3.57187 0,5.37986 l -1.80799,1.27882 v -0.79375 c 0,-5.07118 -2.99861,-5.90903 -5.02708,-5.90903 -3.43959,0 -5.86494,2.64583 -5.95313,5.51216 h 1.05833 c 0.17639,-1.01424 0.88195,-2.11667 2.07257,-2.11667 1.14653,0 1.6757,1.01423 1.6757,2.60174 v 7.32014 c -0.0882,0 -0.13229,0 -0.22049,0 -2.55764,0 -4.93889,1.94028 -4.93889,4.8066 0,0.52917 0.0882,1.05833 0.26458,1.5875 h 1.01424 c 0,-0.0441 0,-0.0882 0,-0.0882 0,-1.27883 0.74965,-1.89619 2.42535,-1.89619 z m 18.07987,-10.40695 v 3.175 l -7.36424,3.70417 c 0,-2.77812 0,-5.55625 0,-8.33438 l 3.2191,-2.24896 c 1.49931,1.05834 2.91042,2.33716 4.14514,3.70417 z m -7.36424,8.29029 7.36424,-3.70417 v 3.2191 l -7.36424,3.70416 c 0,-1.05833 0,-2.11666 0,-3.21909 z m 0,4.63021 7.36424,-3.70417 v 10.05417 l -0.97014,0.57326 c -1.89618,-1.36701 -4.10104,-2.29305 -6.3941,-2.68993 0,-1.41111 0,-2.82222 0,-4.23333 z m -1.27882,4.10104 c -0.39688,-0.0441 -0.79375,-0.0441 -1.19063,-0.0441 -0.17638,0 -0.39687,0 -0.61736,0 v -16.27188 l 1.80799,-1.27882 c 0,5.86493 0,11.72987 0,17.5948 z m 0,5.11528 c 0,2.24896 0,4.49792 0,6.74688 h -1.80799 v -7.45243 c 0.66146,0.17638 1.23473,0.44097 1.80799,0.70555 z"
         style="font-style:normal;font-variant:normal;font-weight:normal;font-stretch:normal;font-size:52.9167px;font-family:Chomsky;-inkscape-font-specification:'Chomsky, Normal';font-variant-ligatures:normal;font-variant-caps:normal;font-variant-numeric:normal;font-variant-east-asian:normal;fill:#00254c;fill-opacity:1;stroke-width:0.264583"
         id="path2054" />
      <path
         d="m -232.18738,279.48189 -2.38126,1.6316 -1.76389,-1.36701 v -13.00869 c 1.45521,1.36701 2.99862,1.80799 3.96876,1.80799 1.32291,0 3.88056,-0.70556 4.36562,-6.17362 h -1.32291 c -0.35278,0.61736 -1.05834,1.10243 -1.98438,1.10243 -0.79375,0 -1.5434,-0.44097 -1.98437,-1.10243 h -0.44098 l -3.0868,3.52778 -3.2191,-3.48368 -5.90904,4.01285 0.61737,0.83785 1.67569,-1.05834 1.49931,1.89618 v 11.64168 l -2.77813,1.89618 0.66146,0.83785 1.45521,-1.05834 4.8507,3.79237 6.61458,-4.76251 z"
         style="font-style:normal;font-variant:normal;font-weight:normal;font-stretch:normal;font-size:52.9167px;font-family:Chomsky;-inkscape-font-specification:'Chomsky, Normal';font-variant-ligatures:normal;font-variant-caps:normal;font-variant-numeric:normal;font-variant-east-asian:normal;fill:#00254c;fill-opacity:1;stroke-width:0.264583"
         id="path2056" />
      <path
         d="m -227.41937,282.17183 1.94028,-1.58751 6.57049,4.8507 9.08403,-7.36424 -0.66146,-1.05833 -4.85069,3.79236 -5.29167,-3.61597 v -1.89619 l 9.525,-5.90903 v -0.22048 l -4.45382,-6.74688 -10.53924,5.46806 v 11.64167 l -2.11667,1.6757 z m 6.79098,-8.37848 v -7.54063 l 0.83784,-0.48507 3.61598,5.20347 z"
         style="font-style:normal;font-variant:normal;font-weight:normal;font-stretch:normal;font-size:52.9167px;font-family:Chomsky;-inkscape-font-specification:'Chomsky, Normal';font-variant-ligatures:normal;font-variant-caps:normal;font-variant-numeric:normal;font-variant-east-asian:normal;fill:#00254c;fill-opacity:1;stroke-width:0.264583"
         id="path2058" />
      <path
         d="m -205.65462,287.3312 0.44097,-1.19062 c -0.35278,-0.17639 -0.61736,-0.57327 -0.61736,-1.05834 0,-1.10243 1.01423,-1.67569 2.07257,-1.67569 1.5434,0 2.64583,1.01423 3.26319,2.02847 l 8.68716,-5.29167 v -6.65868 l -3.79236,-2.77813 c 2.46945,-2.29306 3.48368,-4.8066 3.83646,-8.20209 h -1.23472 c 0,0.0441 0,0.0441 0,0.0441 v -0.0441 c -0.13229,1.05834 -1.05834,1.85209 -2.20487,1.85209 -1.4993,0 -2.60173,-0.97014 -3.21909,-1.94028 l -9.12813,5.29167 v 6.17361 l 3.35139,2.64584 c -3.48369,3.2191 -4.18924,4.85069 -4.18924,6.65868 0,2.07257 1.23472,3.52778 2.73403,4.14514 z m 5.73264,-12.92049 2.42535,1.98438 v 5.73264 c -0.79375,-1.80799 -2.60174,-3.39549 -5.15938,-3.39549 -1.14653,0 -2.24896,0.39687 -3.08681,1.05833 1.10243,-1.36701 2.64584,-2.64583 4.23334,-4.01285 z m -0.13229,-1.49931 -1.80799,-1.89618 v -5.73264 c 0.88195,2.24896 2.82222,3.2632 4.7625,3.2632 0.74966,0 1.49931,-0.17639 2.20487,-0.48507 -0.61737,0.88194 -1.27882,1.4993 -1.89619,2.02847 z"
         style="font-style:normal;font-variant:normal;font-weight:normal;font-stretch:normal;font-size:52.9167px;font-family:Chomsky;-inkscape-font-specification:'Chomsky, Normal';font-variant-ligatures:normal;font-variant-caps:normal;font-variant-numeric:normal;font-variant-east-asian:normal;fill:#00254c;fill-opacity:1;stroke-width:0.264583"
         id="path2060" />
      <path
         d="m -186.43098,287.3312 0.44098,-1.19062 c -0.35278,-0.17639 -0.61736,-0.57327 -0.61736,-1.05834 0,-1.10243 1.01423,-1.67569 2.07257,-1.67569 1.5434,0 2.64583,1.01423 3.26319,2.02847 l 8.68716,-5.29167 v -6.65868 l -3.79236,-2.77813 c 2.46944,-2.29306 3.48368,-4.8066 3.83646,-8.20209 h -1.23472 c 0,0.0441 0,0.0441 0,0.0441 v -0.0441 c -0.1323,1.05834 -1.05834,1.85209 -2.20487,1.85209 -1.4993,0 -2.60173,-0.97014 -3.2191,-1.94028 l -9.12813,5.29167 v 6.17361 l 3.35139,2.64584 c -3.48368,3.2191 -4.18923,4.85069 -4.18923,6.65868 0,2.07257 1.23472,3.52778 2.73402,4.14514 z m 5.73265,-12.92049 2.42535,1.98438 v 5.73264 c -0.79375,-1.80799 -2.60174,-3.39549 -5.15938,-3.39549 -1.14653,0 -2.24896,0.39687 -3.08681,1.05833 1.10243,-1.36701 2.64584,-2.64583 4.23334,-4.01285 z m -0.13229,-1.49931 -1.80799,-1.89618 v -5.73264 c 0.88194,2.24896 2.82222,3.2632 4.7625,3.2632 0.74965,0 1.49931,-0.17639 2.20486,-0.48507 -0.61736,0.88194 -1.27882,1.4993 -1.89618,2.02847 z"
         style="font-style:normal;font-variant:normal;font-weight:normal;font-stretch:normal;font-size:52.9167px;font-family:Chomsky;-inkscape-font-specification:'Chomsky, Normal';font-variant-ligatures:normal;font-variant-caps:normal;font-variant-numeric:normal;font-variant-east-asian:normal;fill:#00254c;fill-opacity:1;stroke-width:0.264583"
         id="path2062" />
      <path
         d="m -136.74578,251.08326 v 0 0 l -11.59758,7.09966 c 1.14653,-1.89618 2.77813,-3.39549 4.71841,-4.40972 l -0.44098,-0.61736 c -6.3941,2.16076 -12.03855,8.42257 -12.03855,16.62466 0,8.42257 6.61459,16.0073 15.03717,16.0073 6.83507,0 12.12674,-4.7625 12.43542,-11.37709 h -0.83785 c -1.5434,3.08681 -4.54201,5.77674 -8.68716,6.30591 0,-7.89341 0,-15.78682 0,-23.68023 1.7198,0.97014 3.52778,1.85209 5.37987,2.60174 l 5.24757,-5.46806 -0.35278,-0.44097 -1.41111,1.14653 c -2.82222,-0.88195 -5.24757,-2.16077 -7.45243,-3.79237 z m -12.78821,22.97467 c -0.74965,-1.94028 -1.14652,-4.18924 -1.14652,-6.57049 0,-2.68993 0.44097,-5.07118 1.27882,-7.14375 l 2.33715,-1.45521 c 0,4.7184 0,9.39271 0,14.11112 z m 0.48507,1.05834 7.67293,-3.2191 V 255.4048 l 0.35277,-0.17639 c 0.52917,0.35277 1.05834,0.70555 1.5875,1.05833 0,8.15799 0,16.36008 0,24.51807 -0.0441,0 -0.13229,0 -0.22048,0 -4.49792,0 -7.62883,-2.24896 -9.39272,-5.68854 z"
         style="font-style:normal;font-variant:normal;font-weight:normal;font-stretch:normal;font-size:52.9167px;font-family:Chomsky;-inkscape-font-specification:'Chomsky, Normal';font-variant-ligatures:normal;font-variant-caps:normal;font-variant-numeric:normal;font-variant-east-asian:normal;fill:#00254c;fill-opacity:1;stroke-width:0.264583"
         id="path2064" />
      <path
         d="m -118.59287,278.24717 v -12.65591 l 5.07118,3.35139 v 12.70001 z m -7.18785,3.79236 1.85208,-1.4993 6.17362,4.49792 9.74549,-5.95313 v -12.03855 l -6.35,-4.8507 -9.92189,5.68855 c 0,3.79236 0,7.58472 0,11.37709 l -2.24895,1.80798 z"
         style="font-style:normal;font-variant:normal;font-weight:normal;font-stretch:normal;font-size:52.9167px;font-family:Chomsky;-inkscape-font-specification:'Chomsky, Normal';font-variant-ligatures:normal;font-variant-caps:normal;font-variant-numeric:normal;font-variant-east-asian:normal;fill:#00254c;fill-opacity:1;stroke-width:0.264583"
         id="path2066" />
      <path
         d="m -92.35087,279.48189 -2.381252,1.6316 -1.763889,-1.36701 v -13.00869 c 1.455209,1.36701 2.998612,1.80799 3.968752,1.80799 1.322917,0 3.880558,-0.70556 4.365628,-6.17362 h -1.322918 c -0.352778,0.61736 -1.058334,1.10243 -1.984376,1.10243 -0.793751,0 -1.543404,-0.44097 -1.984376,-1.10243 h -0.440973 l -3.086807,3.52778 -3.219099,-3.48368 -5.90903,4.01285 0.61736,0.83785 1.6757,-1.05834 1.4993,1.89618 v 11.64168 l -2.77812,1.89618 0.66145,0.83785 1.45521,-1.05834 4.8507,3.79237 6.614588,-4.76251 z"
         style="font-style:normal;font-variant:normal;font-weight:normal;font-stretch:normal;font-size:52.9167px;font-family:Chomsky;-inkscape-font-specification:'Chomsky, Normal';font-variant-ligatures:normal;font-variant-caps:normal;font-variant-numeric:normal;font-variant-east-asian:normal;fill:#00254c;fill-opacity:1;stroke-width:0.264583"
         id="path2068" />
      <path
         d="m -82.643964,262.37216 -5.335767,3.57188 0.440973,0.70555 c 0.30868,-0.17639 0.661458,-0.30868 1.014236,-0.30868 1.367015,0 1.719793,1.19063 1.719793,1.89618 v 11.02432 l -2.24896,1.89618 c 0.749654,0.13229 1.499307,0.22048 2.24896,0.39687 v 11.11251 h 0.837848 l 6.305906,-3.79236 v -0.61736 c -1.455209,-0.22049 -2.028473,-1.36702 -2.028473,-3.08681 v -2.02848 c 1.058334,0.48507 2.072571,0.97014 2.998613,1.49931 2.204862,-1.89618 4.674308,-3.61597 7.320143,-5.07118 v -12.30313 l 1.631598,-1.32292 -0.749653,-0.97014 -1.367015,1.10243 -4.277433,-3.74827 -5.556253,4.14514 v -0.79375 c -0.661459,-1.36701 -1.719793,-2.51354 -2.954516,-3.30729 z m 2.954516,5.55625 1.940279,-1.45521 2.910418,2.38126 v 13.09688 c -1.587501,-0.70556 -3.175002,-1.41111 -4.850697,-2.07257 z"
         style="font-style:normal;font-variant:normal;font-weight:normal;font-stretch:normal;font-size:52.9167px;font-family:Chomsky;-inkscape-font-specification:'Chomsky, Normal';font-variant-ligatures:normal;font-variant-caps:normal;font-variant-numeric:normal;font-variant-east-asian:normal;fill:#00254c;fill-opacity:1;stroke-width:0.264583"
         id="path2070" />
      <path
         d="m -65.204882,266.16452 c 1.322917,0 1.763889,1.14653 1.763889,2.51355 0,0 0,0 0,0 v 10.31875 l -1.367014,1.14653 5.997226,5.02709 5.556253,-4.36563 c 0.308681,2.82222 1.76389,4.23334 3.395488,4.27743 l 5.29167,-3.61597 -0.837848,-1.10243 -1.631598,1.32292 c -0.837848,-0.57327 -1.146528,-1.6757 -1.190626,-2.99862 v -1.85208 -10.45105 l 1.896182,-1.5434 -0.793751,-0.97014 -1.411111,1.14653 -2.910419,-2.51355 -4.145141,3.83646 2.293057,2.02848 v 9.03993 2.16077 l -2.116668,1.5434 -2.73403,-2.64583 v -10.58334 c 0,-2.91042 -1.411112,-4.54202 -3.483682,-5.29167 l -5.688545,3.66007 0.440972,0.61736 c 0.396875,-0.35278 0.97014,-0.70556 1.675696,-0.70556 z"
         style="font-style:normal;font-variant:normal;font-weight:normal;font-stretch:normal;font-size:52.9167px;font-family:Chomsky;-inkscape-font-specification:'Chomsky, Normal';font-variant-ligatures:normal;font-variant-caps:normal;font-variant-numeric:normal;font-variant-east-asian:normal;fill:#00254c;fill-opacity:1;stroke-width:0.264583"
         id="path2072" />
      <path
         d="m -40.496641,287.3312 0.440972,-1.19062 c -0.352778,-0.17639 -0.617361,-0.57327 -0.617361,-1.05834 0,-1.10243 1.014236,-1.67569 2.07257,-1.67569 1.543404,0 2.645835,1.01423 3.263197,2.02847 l 8.687158,-5.29167 v -6.65868 l -3.792364,-2.77813 c 2.469446,-2.29306 3.483683,-4.8066 3.836461,-8.20209 h -1.234723 c 0,0.0441 0,0.0441 0,0.0441 v -0.0441 c -0.132292,1.05834 -1.058334,1.85209 -2.204862,1.85209 -1.499307,0 -2.601738,-0.97014 -3.2191,-1.94028 l -9.12813,5.29167 v 6.17361 l 3.351391,2.64584 c -3.483683,3.2191 -4.189239,4.85069 -4.189239,6.65868 0,2.07257 1.234723,3.52778 2.73403,4.14514 z m 5.732642,-12.92049 2.425349,1.98438 v 5.73264 c -0.793751,-1.80799 -2.601738,-3.39549 -5.159378,-3.39549 -1.146529,0 -2.24896,0.39687 -3.086808,1.05833 1.102431,-1.36701 2.645835,-2.64583 4.233336,-4.01285 z m -0.132292,-1.49931 -1.807987,-1.89618 v -5.73264 c 0.881945,2.24896 2.822224,3.2632 4.762503,3.2632 0.749653,0 1.499306,-0.17639 2.204862,-0.48507 -0.617361,0.88194 -1.27882,1.4993 -1.896181,2.02847 z"
         style="font-style:normal;font-variant:normal;font-weight:normal;font-stretch:normal;font-size:52.9167px;font-family:Chomsky;-inkscape-font-specification:'Chomsky, Normal';font-variant-ligatures:normal;font-variant-caps:normal;font-variant-numeric:normal;font-variant-east-asian:normal;fill:#00254c;fill-opacity:1;stroke-width:0.264583"
         id="path2074" />
      <path
         d="m -10.037843,258.75619 v 8.86354 l 6.1736151,4.05695 -0.3968752,0.35278 c -3.1750019,2.82222 -7.9816019,7.14375 -7.9816019,12.17084 0,5.46806 5.159378,9.08403 10.9361176,9.08403 5.8208368,0 11.4211874,-3.66007 12.7000074,-8.81945 l -1.190626,-0.30868 c -1.2788197,4.18924 -6.9232676,5.73264 -11.3770897,5.73264 -3.8364606,0 -8.9076443,-0.74965 -9.7454923,-4.6743 -0.396875,-3.2191 2.9104188,-3.79237 5.3798647,-3.79237 3.3072937,0 5.99722582,1.71979 7.8493103,3.74827 l 12.082646,-7.62883 V 266.4732 c -1.852084,-1.4993 -4.056947,-2.77812 -6.5263927,-3.61597 3.4395857,-3.08681 7.3642407,-6.83507 7.3642407,-12.52362 v -0.61736 h -0.440973 v -0.0441 h -0.176389 -0.617361 c 0,0 0,0 0,0 v 0 c -0.220486,2.68994 -2.601738,4.32153 -5.29167,4.32153 -2.5576404,0 -4.9829891,-1.27882 -6.6586845,-2.82222 z m 14.8607731,19.40279 c -2.0725706,-1.14653 -4.49791932,-1.94028 -7.276046,-1.94028 -2.3371542,0 -4.4538221,0.70555 -6.0854203,1.89618 1.5875009,-2.07257 3.6159744,-3.83646 5.0711836,-5.15938 l 6.746879,-5.99723 1.5434037,0.74966 z m 1.234723,0.70555 v -10.53924 l 2.5576404,1.23472 v 10.14237 l -0.8378477,0.39687 c -0.529167,-0.39687 -1.1024312,-0.83784 -1.7197927,-1.23472 z m -7.8934075,-21.69584 v 8.90764 l -2.4253487,-1.71979 v -7.58473 l 0.8378477,-0.57326 c 0.4850698,0.35277 1.0142368,0.66145 1.587501,0.97014 z m 1.23472295,0.66145 c 1.85208445,0.88195 3.96875235,1.54341 6.39410105,1.54341 1.8961817,0 3.7041689,-0.52917 5.2034754,-1.45521 -1.5434037,1.89618 -3.3954882,3.52778 -4.9829891,4.93889 l -5.46805888,4.8507 -1.14652847,-0.79375 z"
         style="font-style:normal;font-variant:normal;font-weight:normal;font-stretch:normal;font-size:52.9167px;font-family:Chomsky;-inkscape-font-specification:'Chomsky, Normal';font-variant-ligatures:normal;font-variant-caps:normal;font-variant-numeric:normal;font-variant-east-asian:normal;fill:#00254c;fill-opacity:1;stroke-width:0.264583"
         id="path2076" />
      <path
         d="m 23.357547,277.32113 c 1.322918,2.42535 3.704169,3.04271 4.98299,3.04271 l 2.513543,-1.80799 0.573264,0.74965 -6.482296,5.68855 h -0.617361 l -6.658685,-4.49792 v -13.18508 l 9.128131,-5.11528 4.674308,3.74827 -4.189238,3.175 -3.924656,-3.2632 z"
         style="font-style:normal;font-variant:normal;font-weight:normal;font-stretch:normal;font-size:52.9167px;font-family:Chomsky;-inkscape-font-specification:'Chomsky, Normal';font-variant-ligatures:normal;font-variant-caps:normal;font-variant-numeric:normal;font-variant-east-asian:normal;fill:#00254c;fill-opacity:1;stroke-width:0.264583"
         id="path2078" />
      <path
         d="m 45.62528,279.48189 -2.381251,1.6316 -1.76389,-1.36701 v -13.00869 c 1.455209,1.36701 2.998613,1.80799 3.968752,1.80799 1.322918,0 3.880558,-0.70556 4.365628,-6.17362 h -1.322917 c -0.352778,0.61736 -1.058334,1.10243 -1.984377,1.10243 -0.79375,0 -1.543403,-0.44097 -1.984376,-1.10243 h -0.440972 l -3.086808,3.52778 -3.219099,-3.48368 -5.909031,4.01285 0.617361,0.83785 1.675696,-1.05834 1.499306,1.89618 v 11.64168 l -2.778126,1.89618 0.661458,0.83785 1.455209,-1.05834 4.850698,3.79237 6.614587,-4.76251 z"
         style="font-style:normal;font-variant:normal;font-weight:normal;font-stretch:normal;font-size:52.9167px;font-family:Chomsky;-inkscape-font-specification:'Chomsky, Normal';font-variant-ligatures:normal;font-variant-caps:normal;font-variant-numeric:normal;font-variant-east-asian:normal;fill:#00254c;fill-opacity:1;stroke-width:0.264583"
         id="path2080" />
      <path
         d="m 56.214132,265.94404 5.203475,3.2191 c 0,1.36701 0,2.77812 0,4.14514 -2.954516,-0.66146 -7.628824,-1.85209 -7.628824,-4.67431 0,-1.19063 1.102431,-1.98438 2.425349,-2.68993 z m 0.749653,19.2705 4.630211,-3.3514 3.395488,3.3514 6.129518,-4.18924 -0.220486,-0.88195 -1.896182,1.27882 -2.116668,-2.11667 V 268.193 l 2.293057,-1.85209 -0.749653,-0.97014 -1.807988,1.45521 -6.482295,-4.18924 -4.850697,2.51355 c -1.322918,0.70555 -2.778127,1.80798 -2.778127,3.74826 0,2.02848 1.587501,3.3073 3.615974,4.18924 -3.307293,1.71979 -5.115281,3.96875 -5.115281,6.35001 0,3.26319 3.130905,5.42396 5.953129,5.77674 z m 4.453822,-10.58334 c 0,2.20486 0,4.45382 0,6.65868 -0.308681,0.0882 -0.617361,0.13229 -0.926042,0.13229 -2.73403,0 -4.145142,-3.48368 -4.145142,-5.99722 0,-0.83785 0.264584,-1.5875 0.573265,-2.02848 1.455209,0.52917 3.086807,0.92604 4.497919,1.23473 z"
         style="font-style:normal;font-variant:normal;font-weight:normal;font-stretch:normal;font-size:52.9167px;font-family:Chomsky;-inkscape-font-specification:'Chomsky, Normal';font-variant-ligatures:normal;font-variant-caps:normal;font-variant-numeric:normal;font-variant-east-asian:normal;fill:#00254c;fill-opacity:1;stroke-width:0.264583"
         id="path2082" />
      <path
         d="m 76.932956,262.37216 -5.335767,3.57188 0.440972,0.70555 c 0.308681,-0.17639 0.661459,-0.30868 1.014237,-0.30868 1.367015,0 1.719793,1.19063 1.719793,1.89618 v 11.02432 l -2.24896,1.89618 c 0.749653,0.13229 1.499306,0.22048 2.24896,0.39687 v 11.11251 h 0.837847 l 6.305907,-3.79236 v -0.61736 c -1.455209,-0.22049 -2.028474,-1.36702 -2.028474,-3.08681 v -2.02848 c 1.058334,0.48507 2.072571,0.97014 2.998613,1.49931 2.204863,-1.89618 4.674309,-3.61597 7.320144,-5.07118 v -12.30313 l 1.631598,-1.32292 -0.749653,-0.97014 -1.367015,1.10243 -4.277433,-3.74827 -5.556254,4.14514 v -0.79375 c -0.661458,-1.36701 -1.719792,-2.51354 -2.954515,-3.30729 z m 2.954515,5.55625 1.940279,-1.45521 2.910419,2.38126 v 13.09688 c -1.587501,-0.70556 -3.175002,-1.41111 -4.850698,-2.07257 z"
         style="font-style:normal;font-variant:normal;font-weight:normal;font-stretch:normal;font-size:52.9167px;font-family:Chomsky;-inkscape-font-specification:'Chomsky, Normal';font-variant-ligatures:normal;font-variant-caps:normal;font-variant-numeric:normal;font-variant-east-asian:normal;fill:#00254c;fill-opacity:1;stroke-width:0.264583"
         id="path2084" />
      <path
         d="m 93.181411,282.17183 1.940279,-1.58751 6.57049,4.8507 9.08403,-7.36424 -0.66146,-1.05833 -4.85069,3.79236 -5.291672,-3.61597 v -1.89619 l 9.525002,-5.90903 v -0.22048 l -4.45382,-6.74688 -10.539241,5.46806 v 11.64167 l -2.116668,1.6757 z m 6.790977,-8.37848 v -7.54063 l 0.837852,-0.48507 3.61597,5.20347 z"
         style="font-style:normal;font-variant:normal;font-weight:normal;font-stretch:normal;font-size:52.9167px;font-family:Chomsky;-inkscape-font-specification:'Chomsky, Normal';font-variant-ligatures:normal;font-variant-caps:normal;font-variant-numeric:normal;font-variant-east-asian:normal;fill:#00254c;fill-opacity:1;stroke-width:0.264583"
         id="path2086" />
      <path
         d="m 125.00034,279.48189 -2.38125,1.6316 -1.76389,-1.36701 v -13.00869 c 1.45521,1.36701 2.99861,1.80799 3.96875,1.80799 1.32292,0 3.88056,-0.70556 4.36563,-6.17362 h -1.32292 c -0.35278,0.61736 -1.05833,1.10243 -1.98437,1.10243 -0.79375,0 -1.54341,-0.44097 -1.98438,-1.10243 h -0.44097 l -3.08681,3.52778 -3.2191,-3.48368 -5.90903,4.01285 0.61736,0.83785 1.6757,-1.05834 1.4993,1.89618 v 11.64168 l -2.77812,1.89618 0.66146,0.83785 1.4552,-1.05834 4.8507,3.79237 6.61459,-4.76251 z"
         style="font-style:normal;font-variant:normal;font-weight:normal;font-stretch:normal;font-size:52.9167px;font-family:Chomsky;-inkscape-font-specification:'Chomsky, Normal';font-variant-ligatures:normal;font-variant-caps:normal;font-variant-numeric:normal;font-variant-east-asian:normal;fill:#00254c;fill-opacity:1;stroke-width:0.264583"
         id="path2088" />
    </g>
  </g>
</svg>
